<svg width="666" height="287" viewBox="0 0 666 287" fill="none" xmlns="http://www.w3.org/2000/svg">
<g filter="url(#filter0_d)">
<g filter="url(#filter1_d)">
<path d="M137.875 222.128C131.087 210.141 124.508 209.13 122.067 210.123C109.023 212.971 104.541 225.787 103.931 231.839C102.104 240.776 102.539 251.637 102.985 255.951C108.665 263.199 111.169 266.277 111.711 266.91C122.129 273.05 134.551 266.268 139.459 262.109C149.295 253.055 153.535 247.336 154.425 245.608C156.832 239.44 156.081 237.651 155.405 237.528C123.907 238.564 118.344 242.932 119.771 244.343" stroke="black" stroke-width="2"/>
<path d="M201.589 200.777C175.643 202.455 167.044 206.352 165.987 208.09C167.433 230.444 168.227 253.04 168.443 261.543C175.706 262.276 187.189 262.168 192.023 262.022" stroke="black" stroke-width="2"/>
<path d="M191.524 262.054C197.833 260.444 204.647 258.366 207.265 257.529" stroke="black" stroke-width="2"/>
<path d="M166.797 236.097C179.174 233.793 190.451 232.562 194.078 231.826" stroke="black" stroke-width="2"/>
<path d="M60.916 272.007C58.5025 240.898 62.2744 218.141 64.4621 210.65C72.9995 212.503 77.8811 214.125 79.2547 214.704C93.695 228.801 94.6136 235.255 96.4978 241.146C97.9794 245.459 98.9739 256.184 99.2859 261.007C97.4333 269.545 96.4985 274.716 96.2627 276.234" stroke="black" stroke-width="2"/>
<path d="M96.4978 241.146C80.982 242.951 65.7934 244.134 60.1385 244.5" stroke="black" stroke-width="2"/>
<path d="M9.19465 277.358C8.53743 269.469 7.9334 257.694 7.41918 249.915M7.41918 249.915C6.52998 236.464 5.88727 224.48 5.60404 218.467C43.9239 215.988 46.5683 224.334 46.5683 224.334C51.047 247.093 35.4502 246.097 42.4356 245.646C27.8731 249.794 13.0236 250.221 7.41918 249.915Z" stroke="black" stroke-width="2"/>
</g>
<g filter="url(#filter2_d)">
<path d="M185.199 9.82099C183.868 70.1543 189.634 88.7757 193.515 99.2037C211.255 99.2037 239.529 99.2037 247.844 99.2037M247.844 99.2037C247.844 139.426 240.637 171.641 240.637 183M247.844 99.2037C261.15 81.8858 251.725 23.2284 252.279 2" stroke="black" stroke-width="3"/>
<path d="M370.202 8.8642C368.852 69.5309 374.7 88.2551 378.636 98.7407C396.63 98.7407 425.308 98.7407 433.742 98.7407M433.742 98.7407C433.742 139.185 426.432 171.578 426.432 183M433.742 98.7407C447.237 81.3272 437.678 22.3457 438.24 1" stroke="black" stroke-width="3"/>
<path d="M270.861 11.4006C275.795 -1.82816 308.914 2.36101 338.304 3.68388C350.367 25.1806 363.527 102.238 359.141 156.917C342.143 171.799 299.483 167.389 275.795 167.389C257.152 138.727 270.861 71.3709 270.861 11.4006Z" stroke="black" stroke-width="3"/>
</g>
<g filter="url(#filter3_d)">
<path d="M394.137 211.038C357.028 206.914 341.719 207.067 338.704 207.659" stroke="black" stroke-width="2"/>
<path d="M360.206 268.212C362.972 237.43 365.034 214.798 365.72 207.33" stroke="black" stroke-width="2"/>
<path d="M483.455 210.257C477.697 211.272 466.114 219.46 465.846 244.086C465.8 245.906 466.81 250.268 471.209 253.159C475.51 258.894 488.115 268.379 504.135 260.433C506.603 259.17 511.657 251.88 512.131 232.821C512.368 229.019 502.692 214.708 483.455 210.257Z" stroke="black" stroke-width="2"/>
<path d="M315.407 210.081C309.649 211.097 298.066 219.285 297.798 243.911C297.753 245.731 298.762 250.093 303.162 252.983C307.462 258.719 320.068 268.203 336.087 260.258C338.555 258.995 343.609 251.704 344.083 232.645C344.321 228.844 334.644 214.532 315.407 210.081Z" stroke="black" stroke-width="2"/>
<path d="M576.744 266.421C569.795 241.049 572.672 219.411 573.488 211.935C581.038 211.066 594.878 244.703 601.79 261.019C606.894 266.874 606.893 252.882 610.105 241.439C609.917 222.335 610.442 210.867 608.258 207.931" stroke="black" stroke-width="2"/>
<path d="M248.808 260.942C245.455 234.851 251.313 213.823 253.161 206.533C260.759 206.722 269.786 241.957 274.362 259.076C278.602 265.584 280.547 251.728 285.319 240.843C287.79 221.899 289.904 210.614 288.15 207.403" stroke="black" stroke-width="2"/>
<path d="M427.541 268.885C427.625 265.492 429.458 254.775 429.955 239.408M456.669 210.535C450.703 210.387 433.998 205.596 429.008 209.848C424.94 220.686 430.232 230.845 429.955 239.408M429.955 239.408C442.029 241.021 452.342 239.053 455.989 237.868" stroke="black" stroke-width="2"/>
<path d="M522.604 213.97C522.478 249.128 525.821 260.183 529.309 264.166C540.903 264.454 552.615 267.551 557.827 264.875C563.039 262.199 561.975 229.755 561.968 211.208" stroke="black" stroke-width="2"/>
<path d="M618.735 270.243C616.743 263.192 615.944 241.665 616.64 213.674C649.465 200.985 670.08 257.015 653.898 264.115C643.715 271.364 629.532 270.512 618.735 270.243Z" stroke="black" stroke-width="2"/>
</g>
</g>
<defs>
<filter id="filter0_d" x="0.260376" y="0.500305" width="665.287" height="286.276" filterUnits="userSpaceOnUse" color-interpolation-filters="sRGB">
<feFlood flood-opacity="0" result="BackgroundImageFix"/>
<feColorMatrix in="SourceAlpha" type="matrix" values="0 0 0 0 0 0 0 0 0 0 0 0 0 0 0 0 0 0 127 0"/>
<feOffset dy="4"/>
<feGaussianBlur stdDeviation="2"/>
<feColorMatrix type="matrix" values="0 0 0 0 0 0 0 0 0 0 0 0 0 0 0 0 0 0 0.25 0"/>
<feBlend mode="normal" in2="BackgroundImageFix" result="effect1_dropShadow"/>
<feBlend mode="normal" in="SourceGraphic" in2="effect1_dropShadow" result="shape"/>
</filter>
<filter id="filter1_d" x="0.260376" y="199.779" width="211.536" height="86.9977" filterUnits="userSpaceOnUse" color-interpolation-filters="sRGB">
<feFlood flood-opacity="0" result="BackgroundImageFix"/>
<feColorMatrix in="SourceAlpha" type="matrix" values="0 0 0 0 0 0 0 0 0 0 0 0 0 0 0 0 0 0 127 0"/>
<feOffset dy="4"/>
<feGaussianBlur stdDeviation="2"/>
<feColorMatrix type="matrix" values="0 0 0 0 0 0 0 0 0 0 0 0 0 0 0 0 0 0 0.25 0"/>
<feBlend mode="normal" in2="BackgroundImageFix" result="effect1_dropShadow"/>
<feBlend mode="normal" in="SourceGraphic" in2="effect1_dropShadow" result="shape"/>
</filter>
<filter id="filter2_d" x="179.504" y="0.500305" width="267" height="190.5" filterUnits="userSpaceOnUse" color-interpolation-filters="sRGB">
<feFlood flood-opacity="0" result="BackgroundImageFix"/>
<feColorMatrix in="SourceAlpha" type="matrix" values="0 0 0 0 0 0 0 0 0 0 0 0 0 0 0 0 0 0 127 0"/>
<feOffset dy="4"/>
<feGaussianBlur stdDeviation="2"/>
<feColorMatrix type="matrix" values="0 0 0 0 0 0 0 0 0 0 0 0 0 0 0 0 0 0 0.25 0"/>
<feBlend mode="normal" in2="BackgroundImageFix" result="effect1_dropShadow"/>
<feBlend mode="normal" in="SourceGraphic" in2="effect1_dropShadow" result="shape"/>
</filter>
<filter id="filter3_d" x="242.349" y="205.398" width="423.198" height="74.8792" filterUnits="userSpaceOnUse" color-interpolation-filters="sRGB">
<feFlood flood-opacity="0" result="BackgroundImageFix"/>
<feColorMatrix in="SourceAlpha" type="matrix" values="0 0 0 0 0 0 0 0 0 0 0 0 0 0 0 0 0 0 127 0"/>
<feOffset dy="4"/>
<feGaussianBlur stdDeviation="2"/>
<feColorMatrix type="matrix" values="0 0 0 0 0 0 0 0 0 0 0 0 0 0 0 0 0 0 0.25 0"/>
<feBlend mode="normal" in2="BackgroundImageFix" result="effect1_dropShadow"/>
<feBlend mode="normal" in="SourceGraphic" in2="effect1_dropShadow" result="shape"/>
</filter>
</defs>
</svg>
