<svg width="74" height="46" viewBox="0 0 74 46" fill="none" xmlns="http://www.w3.org/2000/svg">
<rect width="74" height="35" fill="#8B541B" fill-opacity="0.95"/>
<line x1="10" y1="10.5" x2="19" y2="10.5" stroke="#8E551A" stroke-opacity="0.99"/>
<line x1="10.2428" y1="19.5629" x2="19.2428" y2="24.5629" stroke="#8E551A" stroke-opacity="0.99"/>
<line x1="25" y1="4.5" x2="35" y2="4.5" stroke="#8E551A" stroke-opacity="0.99"/>
<line x1="25" y1="13.5" x2="43" y2="13.5" stroke="#8E551A" stroke-opacity="0.99"/>
<line x1="50.2394" y1="5.56105" x2="61.2394" y2="11.5611" stroke="#8E551A" stroke-opacity="0.99"/>
<line x1="30.02" y1="28.5004" x2="55.02" y2="29.5004" stroke="#8E551A" stroke-opacity="0.99"/>
<line x1="64.0552" y1="30.5031" x2="73.0552" y2="31.5031" stroke="#8E551A" stroke-opacity="0.99"/>
<line x1="55.1437" y1="19.5211" x2="65.1437" y2="22.5211" stroke="#8E551A" stroke-opacity="0.99"/>
<line y1="13.5" x2="6" y2="13.5" stroke="#8E551A" stroke-opacity="0.99"/>
<line y1="31.5" x2="7" y2="31.5" stroke="#8E551A" stroke-opacity="0.99"/>
<circle cx="70" cy="3" r="1" fill="#C4C4C4" fill-opacity="0.95"/>
<circle cx="70.5" cy="2.5" r="0.5" fill="black"/>
<circle cx="4" cy="3" r="1" fill="#C4C4C4" fill-opacity="0.95"/>
<circle cx="4.5" cy="2.5" r="0.5" fill="black"/>
<g filter="url(#filter0_d)">
<path d="M39.7091 17.7493C39.5763 11.9797 42.5446 1.44247 55.4802 5.4502C54.7407 8.72707 53.9273 10.352 53.613 10.7549C45.4024 6.01852 43.7733 17.5201 44.951 21.0644C46.7601 26.5084 50.1173 26.4539 51.5698 25.7461C54.4086 24.8639 55.2456 20.8303 55.7163 19.8796L58.4986 19.7063C63.2065 18.7452 59.3015 24.8639 58.4916 26.5517C55.3708 30.2602 52.212 31.3355 51.0227 31.4096C47.56 32.327 40.4496 30.8794 39.7091 17.7493Z" fill="url(#paint0_linear)"/>
<path d="M39.7091 17.7493C39.5763 11.9797 42.5446 1.44247 55.4802 5.4502C54.7407 8.72707 53.9273 10.352 53.613 10.7549C45.4024 6.01852 43.7733 17.5201 44.951 21.0644C46.7601 26.5084 50.1173 26.4539 51.5698 25.7461C54.4086 24.8639 55.2456 20.8303 55.7163 19.8796L58.4986 19.7063C63.2065 18.7452 59.3015 24.8639 58.4916 26.5517C55.3708 30.2602 52.212 31.3355 51.0227 31.4096C47.56 32.327 40.4496 30.8794 39.7091 17.7493Z" fill="url(#paint1_linear)"/>
<path d="M39.7091 17.7493C39.5763 11.9797 42.5446 1.44247 55.4802 5.4502C54.7407 8.72707 53.9273 10.352 53.613 10.7549C45.4024 6.01852 43.7733 17.5201 44.951 21.0644C46.7601 26.5084 50.1173 26.4539 51.5698 25.7461C54.4086 24.8639 55.2456 20.8303 55.7163 19.8796L58.4986 19.7063C63.2065 18.7452 59.3015 24.8639 58.4916 26.5517C55.3708 30.2602 52.212 31.3355 51.0227 31.4096C47.56 32.327 40.4496 30.8794 39.7091 17.7493Z" stroke="black" stroke-width="2"/>
<path d="M39.7091 17.7493C39.5763 11.9797 42.5446 1.44247 55.4802 5.4502C54.7407 8.72707 53.9273 10.352 53.613 10.7549C45.4024 6.01852 43.7733 17.5201 44.951 21.0644C46.7601 26.5084 50.1173 26.4539 51.5698 25.7461C54.4086 24.8639 55.2456 20.8303 55.7163 19.8796L58.4986 19.7063C63.2065 18.7452 59.3015 24.8639 58.4916 26.5517C55.3708 30.2602 52.212 31.3355 51.0227 31.4096C47.56 32.327 40.4496 30.8794 39.7091 17.7493Z" stroke="url(#paint2_radial)" stroke-width="2"/>
</g>
<g filter="url(#filter1_d)">
<path fill-rule="evenodd" clip-rule="evenodd" d="M19.4834 3.0519C14.5157 16.4211 16.4574 24.616 16.597 26.9189C16.804 30.3312 16.5441 33.1924 18.3027 33.6052C25.9192 33.2442 30.6919 32.3832 31.6769 32.2747C38.9286 28.6043 36.9649 24.0684 35.0766 22.2593C31.3659 18.7275 28.2232 18.0284 27.3335 18.1499C34.7621 17.1353 36.4165 15.2622 36.0485 15.1151C39.9499 9.97034 36.4553 6.58283 31.7904 5.19478C28.6273 3.82235 24.8526 3.21357 22.8531 2.84753C22.0729 2.70471 19.877 1.67984 19.4834 3.0519ZM32.0858 10.0648C31.7284 9.48257 28.3307 7.66214 23.1287 7.39107C22.0919 7.88065 20.967 10.4441 20.7154 15.5033C21.4016 15.4511 23.6949 15.2101 27.3783 14.6634C30.1514 14.604 35.4897 12.8562 32.0858 10.0648ZM21.6488 30.0374C21.3517 28.2992 20.7922 23.9252 20.9313 20.335C23.0288 19.8927 28.5516 19.9455 31.9148 25.1762C31.9651 26.5898 29.9822 29.5411 21.6488 30.0374Z" fill="url(#paint3_linear)"/>
<path fill-rule="evenodd" clip-rule="evenodd" d="M19.4834 3.0519C14.5157 16.4211 16.4574 24.616 16.597 26.9189C16.804 30.3312 16.5441 33.1924 18.3027 33.6052C25.9192 33.2442 30.6919 32.3832 31.6769 32.2747C38.9286 28.6043 36.9649 24.0684 35.0766 22.2593C31.3659 18.7275 28.2232 18.0284 27.3335 18.1499C34.7621 17.1353 36.4165 15.2622 36.0485 15.1151C39.9499 9.97034 36.4553 6.58283 31.7904 5.19478C28.6273 3.82235 24.8526 3.21357 22.8531 2.84753C22.0729 2.70471 19.877 1.67984 19.4834 3.0519ZM32.0858 10.0648C31.7284 9.48257 28.3307 7.66214 23.1287 7.39107C22.0919 7.88065 20.967 10.4441 20.7154 15.5033C21.4016 15.4511 23.6949 15.2101 27.3783 14.6634C30.1514 14.604 35.4897 12.8562 32.0858 10.0648ZM21.6488 30.0374C21.3517 28.2992 20.7922 23.9252 20.9313 20.335C23.0288 19.8927 28.5516 19.9455 31.9148 25.1762C31.9651 26.5898 29.9822 29.5411 21.6488 30.0374Z" fill="url(#paint4_linear)"/>
<path fill-rule="evenodd" clip-rule="evenodd" d="M19.4834 3.0519C14.5157 16.4211 16.4574 24.616 16.597 26.9189C16.804 30.3312 16.5441 33.1924 18.3027 33.6052C25.9192 33.2442 30.6919 32.3832 31.6769 32.2747C38.9286 28.6043 36.9649 24.0684 35.0766 22.2593C31.3659 18.7275 28.2232 18.0284 27.3335 18.1499C34.7621 17.1353 36.4165 15.2622 36.0485 15.1151C39.9499 9.97034 36.4553 6.58283 31.7904 5.19478C28.6273 3.82235 24.8526 3.21357 22.8531 2.84753C22.0729 2.70471 19.877 1.67984 19.4834 3.0519ZM32.0858 10.0648C31.7284 9.48257 28.3307 7.66214 23.1287 7.39107C22.0919 7.88065 20.967 10.4441 20.7154 15.5033C21.4016 15.4511 23.6949 15.2101 27.3783 14.6634C30.1514 14.604 35.4897 12.8562 32.0858 10.0648ZM21.6488 30.0374C21.3517 28.2992 20.7922 23.9252 20.9313 20.335C23.0288 19.8927 28.5516 19.9455 31.9148 25.1762C31.9651 26.5898 29.9822 29.5411 21.6488 30.0374Z" stroke="black" stroke-width="2"/>
<path fill-rule="evenodd" clip-rule="evenodd" d="M19.4834 3.0519C14.5157 16.4211 16.4574 24.616 16.597 26.9189C16.804 30.3312 16.5441 33.1924 18.3027 33.6052C25.9192 33.2442 30.6919 32.3832 31.6769 32.2747C38.9286 28.6043 36.9649 24.0684 35.0766 22.2593C31.3659 18.7275 28.2232 18.0284 27.3335 18.1499C34.7621 17.1353 36.4165 15.2622 36.0485 15.1151C39.9499 9.97034 36.4553 6.58283 31.7904 5.19478C28.6273 3.82235 24.8526 3.21357 22.8531 2.84753C22.0729 2.70471 19.877 1.67984 19.4834 3.0519ZM32.0858 10.0648C31.7284 9.48257 28.3307 7.66214 23.1287 7.39107C22.0919 7.88065 20.967 10.4441 20.7154 15.5033C21.4016 15.4511 23.6949 15.2101 27.3783 14.6634C30.1514 14.604 35.4897 12.8562 32.0858 10.0648ZM21.6488 30.0374C21.3517 28.2992 20.7922 23.9252 20.9313 20.335C23.0288 19.8927 28.5516 19.9455 31.9148 25.1762C31.9651 26.5898 29.9822 29.5411 21.6488 30.0374Z" stroke="url(#paint5_radial)" stroke-width="2"/>
</g>
<defs>
<filter id="filter0_d" x="34.705" y="3.56289" width="31.0758" height="37.0681" filterUnits="userSpaceOnUse" color-interpolation-filters="sRGB">
<feFlood flood-opacity="0" result="BackgroundImageFix"/>
<feColorMatrix in="SourceAlpha" type="matrix" values="0 0 0 0 0 0 0 0 0 0 0 0 0 0 0 0 0 0 127 0"/>
<feOffset dy="4"/>
<feGaussianBlur stdDeviation="2"/>
<feColorMatrix type="matrix" values="0 0 0 0 0 0 0 0 0 0 0 0 0 0 0 0 0 0 0.25 0"/>
<feBlend mode="normal" in2="BackgroundImageFix" result="effect1_dropShadow"/>
<feBlend mode="normal" in="SourceGraphic" in2="effect1_dropShadow" result="shape"/>
</filter>
<filter id="filter1_d" x="8.87317" y="0.874329" width="36.0036" height="44.2089" filterUnits="userSpaceOnUse" color-interpolation-filters="sRGB">
<feFlood flood-opacity="0" result="BackgroundImageFix"/>
<feColorMatrix in="SourceAlpha" type="matrix" values="0 0 0 0 0 0 0 0 0 0 0 0 0 0 0 0 0 0 127 0"/>
<feOffset dy="4"/>
<feGaussianBlur stdDeviation="2"/>
<feColorMatrix type="matrix" values="0 0 0 0 0 0 0 0 0 0 0 0 0 0 0 0 0 0 0.25 0"/>
<feBlend mode="normal" in2="BackgroundImageFix" result="effect1_dropShadow"/>
<feBlend mode="normal" in="SourceGraphic" in2="effect1_dropShadow" result="shape"/>
</filter>
<linearGradient id="paint0_linear" x1="44" y1="30" x2="51" y2="20.5" gradientUnits="userSpaceOnUse">
<stop stop-color="#903030" stop-opacity="0"/>
<stop offset="1" stop-color="#903030"/>
</linearGradient>
<linearGradient id="paint1_linear" x1="48" y1="30.5" x2="52.5" y2="19" gradientUnits="userSpaceOnUse">
<stop stop-color="#700D66"/>
<stop offset="1" stop-color="white" stop-opacity="0"/>
</linearGradient>
<radialGradient id="paint2_radial" cx="0" cy="0" r="1" gradientUnits="userSpaceOnUse" gradientTransform="translate(59.2856 6.3416) rotate(120.316) scale(31.3149 45.326)">
<stop stop-color="#642222" stop-opacity="0"/>
<stop offset="1" stop-color="#913030"/>
</radialGradient>
<linearGradient id="paint3_linear" x1="18.5" y1="35" x2="39" y2="6" gradientUnits="userSpaceOnUse">
<stop offset="0.423688" stop-color="#903030"/>
<stop offset="1" stop-color="#903030" stop-opacity="0"/>
</linearGradient>
<linearGradient id="paint4_linear" x1="28.9854" y1="3.46447" x2="24.7657" y2="34.4844" gradientUnits="userSpaceOnUse">
<stop stop-color="#700D66"/>
<stop offset="0.677083" stop-color="white" stop-opacity="0"/>
</linearGradient>
<radialGradient id="paint5_radial" cx="0" cy="0" r="1" gradientUnits="userSpaceOnUse" gradientTransform="translate(33.5 9) rotate(123.179) scale(31.0644 21.2356)">
<stop stop-color="#A04D4D" stop-opacity="0.859375"/>
<stop offset="0.0001" stop-color="#642222" stop-opacity="0"/>
<stop offset="1" stop-color="#903030"/>
</radialGradient>
</defs>
</svg>
