<svg width="173" height="131" viewBox="0 0 173 131" fill="none" xmlns="http://www.w3.org/2000/svg">
<g filter="url(#filter0_d)">
<path d="M91.4589 60.6752C90.9984 40.6694 101.291 4.13188 146.144 18.0285C143.58 29.3909 140.76 35.0253 139.67 36.4222C111.2 19.9991 105.551 59.8805 109.635 72.17C115.908 91.0468 127.549 90.8577 132.585 88.4036C142.429 85.3445 145.331 71.3584 146.963 68.0618L156.61 67.4608C172.935 64.1281 159.394 85.3444 156.586 91.197C145.765 104.056 134.812 107.785 130.688 108.042C118.681 111.223 94.0263 106.203 91.4589 60.6752Z" fill="url(#paint0_linear)"/>
<path d="M91.4589 60.6752C90.9984 40.6694 101.291 4.13188 146.144 18.0285C143.58 29.3909 140.76 35.0253 139.67 36.4222C111.2 19.9991 105.551 59.8805 109.635 72.17C115.908 91.0468 127.549 90.8577 132.585 88.4036C142.429 85.3445 145.331 71.3584 146.963 68.0618L156.61 67.4608C172.935 64.1281 159.394 85.3444 156.586 91.197C145.765 104.056 134.812 107.785 130.688 108.042C118.681 111.223 94.0263 106.203 91.4589 60.6752Z" stroke="black" stroke-width="4"/>
<path d="M91.4589 60.6752C90.9984 40.6694 101.291 4.13188 146.144 18.0285C143.58 29.3909 140.76 35.0253 139.67 36.4222C111.2 19.9991 105.551 59.8805 109.635 72.17C115.908 91.0468 127.549 90.8577 132.585 88.4036C142.429 85.3445 145.331 71.3584 146.963 68.0618L156.61 67.4608C172.935 64.1281 159.394 85.3444 156.586 91.197C145.765 104.056 134.812 107.785 130.688 108.042C118.681 111.223 94.0263 106.203 91.4589 60.6752Z" stroke="url(#paint1_radial)" stroke-width="4"/>
</g>
<g filter="url(#filter1_d)">
<path fill-rule="evenodd" clip-rule="evenodd" d="M26.0136 6.64742C8.78828 53.0044 15.5208 81.4197 16.0051 89.405C16.7227 101.237 15.8217 111.158 21.9195 112.589C48.3292 111.338 64.8784 108.352 68.2937 107.976C93.4386 95.249 86.6298 79.5211 80.0822 73.248C67.2154 61.0019 56.3182 58.5776 53.2333 58.999C78.9916 55.4808 84.7282 48.9861 83.452 48.4761C96.98 30.6368 84.8627 18.8907 68.6874 14.0777C57.7194 9.31892 44.6308 7.208 37.6977 5.93878C34.9926 5.44356 27.3783 1.88985 26.0136 6.64742ZM69.7115 30.9642C68.4723 28.9454 56.6911 22.6332 38.6532 21.6933C35.0582 23.3909 31.1579 32.2796 30.2854 49.8221C32.6648 49.6411 40.6167 48.8054 53.3888 46.9096C63.0042 46.7038 81.5146 40.6435 69.7115 30.9642ZM33.522 100.218C32.4917 94.191 30.5516 79.0245 31.0339 66.5759C38.307 65.0422 57.4571 65.2251 69.1188 83.3625C69.2931 88.264 62.4177 98.4974 33.522 100.218Z" fill="url(#paint2_linear)"/>
<path fill-rule="evenodd" clip-rule="evenodd" d="M26.0136 6.64742C8.78828 53.0044 15.5208 81.4197 16.0051 89.405C16.7227 101.237 15.8217 111.158 21.9195 112.589C48.3292 111.338 64.8784 108.352 68.2937 107.976C93.4386 95.249 86.6298 79.5211 80.0822 73.248C67.2154 61.0019 56.3182 58.5776 53.2333 58.999C78.9916 55.4808 84.7282 48.9861 83.452 48.4761C96.98 30.6368 84.8627 18.8907 68.6874 14.0777C57.7194 9.31892 44.6308 7.208 37.6977 5.93878C34.9926 5.44356 27.3783 1.88985 26.0136 6.64742ZM69.7115 30.9642C68.4723 28.9454 56.6911 22.6332 38.6532 21.6933C35.0582 23.3909 31.1579 32.2796 30.2854 49.8221C32.6648 49.6411 40.6167 48.8054 53.3888 46.9096C63.0042 46.7038 81.5146 40.6435 69.7115 30.9642ZM33.522 100.218C32.4917 94.191 30.5516 79.0245 31.0339 66.5759C38.307 65.0422 57.4571 65.2251 69.1188 83.3625C69.2931 88.264 62.4177 98.4974 33.522 100.218Z" stroke="black" stroke-width="4"/>
<path fill-rule="evenodd" clip-rule="evenodd" d="M26.0136 6.64742C8.78828 53.0044 15.5208 81.4197 16.0051 89.405C16.7227 101.237 15.8217 111.158 21.9195 112.589C48.3292 111.338 64.8784 108.352 68.2937 107.976C93.4386 95.249 86.6298 79.5211 80.0822 73.248C67.2154 61.0019 56.3182 58.5776 53.2333 58.999C78.9916 55.4808 84.7282 48.9861 83.452 48.4761C96.98 30.6368 84.8627 18.8907 68.6874 14.0777C57.7194 9.31892 44.6308 7.208 37.6977 5.93878C34.9926 5.44356 27.3783 1.88985 26.0136 6.64742ZM69.7115 30.9642C68.4723 28.9454 56.6911 22.6332 38.6532 21.6933C35.0582 23.3909 31.1579 32.2796 30.2854 49.8221C32.6648 49.6411 40.6167 48.8054 53.3888 46.9096C63.0042 46.7038 81.5146 40.6435 69.7115 30.9642ZM33.522 100.218C32.4917 94.191 30.5516 79.0245 31.0339 66.5759C38.307 65.0422 57.4571 65.2251 69.1188 83.3625C69.2931 88.264 62.4177 98.4974 33.522 100.218Z" stroke="url(#paint3_radial)" stroke-width="4"/>
</g>
<defs>
<filter id="filter0_d" x="82.8906" y="10.8905" width="89.7215" height="109.778" filterUnits="userSpaceOnUse" color-interpolation-filters="sRGB">
<feFlood flood-opacity="0" result="BackgroundImageFix"/>
<feColorMatrix in="SourceAlpha" type="matrix" values="0 0 0 0 0 0 0 0 0 0 0 0 0 0 0 0 0 0 127 0"/>
<feOffset dy="4"/>
<feGaussianBlur stdDeviation="2"/>
<feColorMatrix type="matrix" values="0 0 0 0 0 0 0 0 0 0 0 0 0 0 0 0 0 0 0.25 0"/>
<feBlend mode="normal" in2="BackgroundImageFix" result="effect1_dropShadow"/>
<feBlend mode="normal" in="SourceGraphic" in2="effect1_dropShadow" result="shape"/>
</filter>
<filter id="filter1_d" x="0.746307" y="0.748657" width="101.796" height="130.236" filterUnits="userSpaceOnUse" color-interpolation-filters="sRGB">
<feFlood flood-opacity="0" result="BackgroundImageFix"/>
<feColorMatrix in="SourceAlpha" type="matrix" values="0 0 0 0 0 0 0 0 0 0 0 0 0 0 0 0 0 0 127 0"/>
<feOffset dy="4"/>
<feGaussianBlur stdDeviation="2"/>
<feColorMatrix type="matrix" values="0 0 0 0 0 0 0 0 0 0 0 0 0 0 0 0 0 0 0.25 0"/>
<feBlend mode="normal" in2="BackgroundImageFix" result="effect1_dropShadow"/>
<feBlend mode="normal" in="SourceGraphic" in2="effect1_dropShadow" result="shape"/>
</filter>
<linearGradient id="paint0_linear" x1="151.605" y1="26.0627" x2="83.7193" y2="136.56" gradientUnits="userSpaceOnUse">
<stop stop-color="#903030" stop-opacity="0"/>
<stop offset="1" stop-color="#903030"/>
</linearGradient>
<radialGradient id="paint1_radial" cx="0" cy="0" r="1" gradientUnits="userSpaceOnUse" gradientTransform="translate(159.339 21.1194) rotate(120.316) scale(108.583 157.166)">
<stop stop-color="#642222" stop-opacity="0"/>
<stop offset="1" stop-color="#913030"/>
</radialGradient>
<linearGradient id="paint2_linear" x1="7.67345" y1="125.476" x2="95.8098" y2="9.42718" gradientUnits="userSpaceOnUse">
<stop stop-color="#642222"/>
<stop offset="1" stop-color="#642222" stop-opacity="0"/>
</linearGradient>
<radialGradient id="paint3_radial" cx="0" cy="0" r="1" gradientUnits="userSpaceOnUse" gradientTransform="translate(16.1578 124.961) rotate(-50.0272) scale(130.156 88.9742)">
<stop stop-color="#903030"/>
<stop offset="0.0001" stop-color="#A04D4D" stop-opacity="0.859375"/>
<stop offset="1" stop-color="#903030" stop-opacity="0.12"/>
</radialGradient>
</defs>
</svg>
