<svg width="754" height="192" viewBox="0 0 754 192" fill="none" xmlns="http://www.w3.org/2000/svg">
<g filter="url(#filter0_d)">
<path d="M90.8704 14.1452C64.931 12.3709 55.8908 15.0937 54.6131 16.6768C53.0845 39.0246 50.8772 61.5264 49.9646 69.9839C57.0659 71.6724 68.4626 73.0868 73.2733 73.5829" stroke="black"/>
<path d="M90.8704 14.1452C64.931 12.3709 55.8908 15.0937 54.6131 16.6768C53.0845 39.0246 50.8772 61.5264 49.9646 69.9839C57.0659 71.6724 68.4626 73.0868 73.2733 73.5829" stroke="url(#paint0_linear)"/>
<path d="M72.7745 73.5488C79.2414 72.7883 86.2701 71.6319 88.976 71.1488" stroke="black"/>
<path d="M72.7745 73.5488C79.2414 72.7883 86.2701 71.6319 88.976 71.1488" stroke="url(#paint1_linear)"/>
<path d="M51.7048 44.5433C64.278 43.8998 75.619 44.1744 79.3113 43.9258" stroke="black"/>
<path d="M51.7048 44.5433C64.278 43.8998 75.619 44.1744 79.3113 43.9258" stroke="url(#paint2_linear)"/>
<path d="M101.038 70.9715C102.768 39.8169 109.522 17.7597 112.683 10.6255C120.9 13.5931 125.523 15.8472 126.808 16.6033C139.253 32.4896 139.308 39.0086 140.395 45.0969C141.292 49.5686 140.857 60.3306 140.527 65.1527C137.559 73.3693 135.948 78.371 135.513 79.8447" stroke="black"/>
<path d="M101.038 70.9715C102.768 39.8169 109.522 17.7597 112.683 10.6255C120.9 13.5931 125.523 15.8472 126.808 16.6033C139.253 32.4896 139.308 39.0086 140.395 45.0969C141.292 49.5686 140.857 60.3306 140.527 65.1527C137.559 73.3693 135.948 78.371 135.513 79.8447" stroke="url(#paint3_linear)"/>
<path d="M140.395 45.0969C124.777 44.8305 109.566 43.9905 103.912 43.6038" stroke="black"/>
<path d="M140.395 45.0969C124.777 44.8305 109.566 43.9905 103.912 43.6038" stroke="url(#paint4_linear)"/>
<path d="M161.166 72.924C161.478 63.3731 161.839 54.51 162.204 46.6181M162.204 46.6181C162.979 29.911 163.776 17.5563 164.183 12.2433C190.2 14.5983 199.644 18.154 201.113 19.6375C198.824 31.478 196.884 41.3356 196.2 44.7843C181.566 46.2517 167.439 46.6183 162.204 46.6181Z" stroke="black"/>
<path d="M161.166 72.924C161.478 63.3731 161.839 54.51 162.204 46.6181M162.204 46.6181C162.979 29.911 163.776 17.5563 164.183 12.2433C190.2 14.5983 199.644 18.154 201.113 19.6375C198.824 31.478 196.884 41.3356 196.2 44.7843C181.566 46.2517 167.439 46.6183 162.204 46.6181Z" stroke="url(#paint5_linear)"/>
<path d="M197.134 74.8114C190.603 51.9819 180.637 46.2172 176.47 46.1886" stroke="black"/>
<path d="M197.134 74.8114C190.603 51.9819 180.637 46.2172 176.47 46.1886" stroke="url(#paint6_linear)"/>
<path d="M548.5 58.9999C511.3 55.7999 496 56.3332 493 56.9999" stroke="black"/>
<path d="M548.5 58.9999C511.3 55.7999 496 56.3332 493 56.9999" stroke="url(#paint7_linear)"/>
<path d="M516 117C518 86.1583 519.5 63.4826 520 55.9999" stroke="black"/>
<path d="M516 117C518 86.1583 519.5 63.4826 520 55.9999" stroke="url(#paint8_linear)"/>
<path d="M489.5 58.9999C452.3 55.7999 437 56.3332 434 56.9999" stroke="black"/>
<path d="M489.5 58.9999C452.3 55.7999 437 56.3332 434 56.9999" stroke="url(#paint9_linear)"/>
<path d="M457 117C459 86.1583 460.5 63.4826 461 55.9999" stroke="black"/>
<path d="M457 117C459 86.1583 460.5 63.4826 461 55.9999" stroke="url(#paint10_linear)"/>
<path d="M747 51.9999C721 51.9999 712.167 55.3332 711 56.9999C711 79.3999 710.333 102 710 110.5C717.2 111.7 728.667 112.333 733.5 112.5" stroke="black"/>
<path d="M747 51.9999C721 51.9999 712.167 55.3332 711 56.9999C711 79.3999 710.333 102 710 110.5C717.2 111.7 728.667 112.333 733.5 112.5" stroke="url(#paint11_linear)"/>
<path d="M733 112.5C739.4 111.3 746.333 109.667 749 109" stroke="black"/>
<path d="M733 112.5C739.4 111.3 746.333 109.667 749 109" stroke="url(#paint12_linear)"/>
<path d="M710 84.9999C722.5 83.4999 733.833 82.9999 737.5 82.4999" stroke="black"/>
<path d="M710 84.9999C722.5 83.4999 733.833 82.9999 737.5 82.4999" stroke="url(#paint13_linear)"/>
<path d="M556.022 113C555.622 81.7999 560.855 59.3332 563.522 51.9999C571.922 54.3999 576.688 56.3332 578.022 56.9999C591.522 71.9999 592.022 78.4999 593.522 84.4999C594.722 88.8999 595.022 99.6666 595.022 104.5C592.622 112.9 591.355 118 591.022 119.5" stroke="black"/>
<path d="M556.022 113C555.622 81.7999 560.855 59.3332 563.522 51.9999C571.922 54.3999 576.688 56.3332 578.022 56.9999C591.522 71.9999 592.022 78.4999 593.522 84.4999C594.722 88.8999 595.022 99.6666 595.022 104.5C592.622 112.9 591.355 118 591.022 119.5" stroke="url(#paint14_linear)"/>
<path d="M593.522 84.4999C577.922 85.2999 562.688 85.4999 557.022 85.4999" stroke="black"/>
<path d="M593.522 84.4999C577.922 85.2999 562.688 85.4999 557.022 85.4999" stroke="url(#paint15_linear)"/>
<path d="M389.022 113C388.622 81.7999 393.855 59.3332 396.522 51.9999C404.922 54.3999 409.688 56.3332 411.022 56.9999C424.522 71.9999 425.022 78.4999 426.522 84.4999C427.722 88.8999 428.022 99.6666 428.022 104.5C425.622 112.9 424.355 118 424.022 119.5" stroke="black"/>
<path d="M389.022 113C388.622 81.7999 393.855 59.3332 396.522 51.9999C404.922 54.3999 409.688 56.3332 411.022 56.9999C424.522 71.9999 425.022 78.4999 426.522 84.4999C427.722 88.8999 428.022 99.6666 428.022 104.5C425.622 112.9 424.355 118 424.022 119.5" stroke="url(#paint16_linear)"/>
<path d="M426.522 84.4999C410.922 85.2999 395.688 85.4999 390.022 85.4999" stroke="black"/>
<path d="M426.522 84.4999C410.922 85.2999 395.688 85.4999 390.022 85.4999" stroke="url(#paint17_linear)"/>
<path d="M374.136 59.8106C344.136 47.8106 330.636 57.144 327.636 63.3106C317.236 78.1106 319.136 77.8106 319.136 86.8106C317.936 104.411 330.636 113.144 337.136 115.311C360.336 115.311 367.136 110.811 383.136 92.3106" stroke="black"/>
<path d="M374.136 59.8106C344.136 47.8106 330.636 57.144 327.636 63.3106C317.236 78.1106 319.136 77.8106 319.136 86.8106C317.936 104.411 330.636 113.144 337.136 115.311C360.336 115.311 367.136 110.811 383.136 92.3106" stroke="url(#paint18_linear)"/>
<path d="M664.5 53.9999C664.5 77.1999 662.833 101.667 662 111C686.4 111 702 109.5 702.5 108.5H694" stroke="black"/>
<path d="M664.5 53.9999C664.5 77.1999 662.833 101.667 662 111C686.4 111 702 109.5 702.5 108.5H694" stroke="url(#paint19_linear)"/>
<path d="M603 54.4764C604.129 78.4601 603.47 106.004 603 116.778M603 54.4764V116.778M603 54.4764C622.569 47.731 638.123 56.3502 643.455 61.5029C648.347 72.7453 637.967 80.5525 632.165 83.0508C626.82 84.825 621.501 85.5535 617.112 85.7546M603 116.778C610.84 118.027 629.907 119.401 643.455 114.904C654.744 108.346 658.507 87.7351 617.112 85.7546M603 85.6271C604.784 85.9232 613.158 85.9359 617.112 85.7546" stroke="black"/>
<path d="M603 54.4764C604.129 78.4601 603.47 106.004 603 116.778M603 54.4764V116.778M603 54.4764C622.569 47.731 638.123 56.3502 643.455 61.5029C648.347 72.7453 637.967 80.5525 632.165 83.0508C626.82 84.825 621.501 85.5535 617.112 85.7546M603 116.778C610.84 118.027 629.907 119.401 643.455 114.904C654.744 108.346 658.507 87.7351 617.112 85.7546M603 85.6271C604.784 85.9232 613.158 85.9359 617.112 85.7546" stroke="url(#paint20_linear)"/>
<path d="M197.34 118.661C173.584 110.123 164.419 110.268 162.805 111.407C155.45 131.874 147.419 152.304 144.323 159.961C150.507 163.421 160.776 167.765 165.138 169.505" stroke="black"/>
<path d="M197.34 118.661C173.584 110.123 164.419 110.268 162.805 111.407C155.45 131.874 147.419 152.304 144.323 159.961C150.507 163.421 160.776 167.765 165.138 169.505" stroke="url(#paint21_linear)"/>
<path d="M164.681 169.341C170.922 170.346 177.794 171.131 180.449 171.397" stroke="black"/>
<path d="M164.681 169.341C170.922 170.346 177.794 171.131 180.449 171.397" stroke="url(#paint22_linear)"/>
<path d="M152.697 136.662C164.61 139.396 175.13 142.661 178.644 143.408" stroke="black"/>
<path d="M152.697 136.662C164.61 139.396 175.13 142.661 178.644 143.408" stroke="url(#paint23_linear)"/>
<path d="M52.1544 129.413C62.0346 100.775 74.1939 81.9664 79.0385 76.1418C85.9253 81.0931 89.6456 84.4249 90.6449 85.4718C98.0537 103.61 96.3761 109.713 95.7763 115.688C95.4278 120.102 92.1662 130.038 90.579 134.454C85.6278 141.341 82.7957 145.585 81.9985 146.846" stroke="black"/>
<path d="M52.1544 129.413C62.0346 100.775 74.1939 81.9664 79.0385 76.1418C85.9253 81.0931 89.6456 84.4249 90.6449 85.4718C98.0537 103.61 96.3761 109.713 95.7763 115.688C95.4278 120.102 92.1662 130.038 90.579 134.454C85.6278 141.341 82.7957 145.585 81.9985 146.846" stroke="url(#paint24_linear)"/>
<path d="M95.7762 115.688C81.2601 111.296 67.2761 106.476 62.0986 104.615" stroke="black"/>
<path d="M95.7762 115.688C81.2601 111.296 67.2761 106.476 62.0986 104.615" stroke="url(#paint25_linear)"/>
<path d="M100.412 147.629C103.237 138.792 105.925 130.61 108.36 123.336M108.36 123.336C113.515 107.938 117.537 96.6107 119.327 91.7568C143.001 100.858 150.878 106.684 151.857 108.459C146.578 118.91 142.151 127.602 140.598 130.642C126.54 128.13 113.249 124.725 108.36 123.336Z" stroke="black"/>
<path d="M100.412 147.629C103.237 138.792 105.925 130.61 108.36 123.336M108.36 123.336C113.515 107.938 117.537 96.6107 119.327 91.7568C143.001 100.858 150.878 106.684 151.857 108.459C146.578 118.91 142.151 127.602 140.598 130.642C126.54 128.13 113.249 124.725 108.36 123.336Z" stroke="url(#paint26_linear)"/>
<path d="M133.504 158.933C133.46 135.879 125.682 127.851 121.798 126.719" stroke="black"/>
<path d="M133.504 158.933C133.46 135.879 125.682 127.851 121.798 126.719" stroke="url(#paint27_linear)"/>
<path d="M207.5 59.9999C207.5 83.1999 205.833 107.667 205 117C229.4 117 236.5 115 237 114V114.5" stroke="black"/>
<path d="M207.5 59.9999C207.5 83.1999 205.833 107.667 205 117C229.4 117 236.5 115 237 114V114.5" stroke="url(#paint28_linear)"/>
<path d="M240 58.2372C248.484 75.688 251.721 82.8474 265.116 88.9999M265.116 88.9999C265.116 99.7389 264.372 116.034 262.884 122L265.116 88.9999ZM265.116 88.9999C284.651 82.288 286.512 64.0169 288 55.9999" stroke="black"/>
<path d="M240 58.2372C248.484 75.688 251.721 82.8474 265.116 88.9999M265.116 88.9999C265.116 99.7389 264.372 116.034 262.884 122L265.116 88.9999ZM265.116 88.9999C284.651 82.288 286.512 64.0169 288 55.9999" stroke="url(#paint29_linear)"/>
<path d="M5 62.4764C6.12896 86.4601 5.4704 114.004 5 124.778M5 62.4764V124.778M5 62.4764C24.5687 55.731 40.1234 64.3502 45.4546 69.5029C50.3468 80.7453 39.9666 88.5525 34.1649 91.0508C28.82 92.825 23.5011 93.5535 19.1121 93.7546M5 124.778C12.84 126.027 31.907 127.401 45.4546 122.904C56.7442 116.346 60.5074 95.7351 19.1121 93.7546M5 93.6271C6.78361 93.9232 15.1576 93.9359 19.1121 93.7546" stroke="black"/>
<path d="M5 62.4764C6.12896 86.4601 5.4704 114.004 5 124.778M5 62.4764V124.778M5 62.4764C24.5687 55.731 40.1234 64.3502 45.4546 69.5029C50.3468 80.7453 39.9666 88.5525 34.1649 91.0508C28.82 92.825 23.5011 93.5535 19.1121 93.7546M5 124.778C12.84 126.027 31.907 127.401 45.4546 122.904C56.7442 116.346 60.5074 95.7351 19.1121 93.7546M5 93.6271C6.78361 93.9232 15.1576 93.9359 19.1121 93.7546" stroke="url(#paint30_linear)"/>
<line x1="191.491" y1="114.96" x2="52.6078" y2="149.896" stroke="black" stroke-width="5"/>
<line x1="191.491" y1="114.96" x2="52.6078" y2="149.896" stroke="url(#paint31_linear)" stroke-opacity="0.85" stroke-width="5"/>
<line x1="171.542" y1="181.608" x2="68.1115" y2="82.557" stroke="black" stroke-width="5"/>
<line x1="171.542" y1="181.608" x2="68.1115" y2="82.557" stroke="url(#paint32_linear)" stroke-opacity="0.85" stroke-width="5"/>
</g>
<defs>
<filter id="filter0_d" x="0.5" y="7.56656" width="752.621" height="183.847" filterUnits="userSpaceOnUse" color-interpolation-filters="sRGB">
<feFlood flood-opacity="0" result="BackgroundImageFix"/>
<feColorMatrix in="SourceAlpha" type="matrix" values="0 0 0 0 0 0 0 0 0 0 0 0 0 0 0 0 0 0 127 0"/>
<feOffset dy="4"/>
<feGaussianBlur stdDeviation="2"/>
<feColorMatrix type="matrix" values="0 0 0 0 0 0 0 0 0 0 0 0 0 0 0 0 0 0 0.25 0"/>
<feBlend mode="normal" in2="BackgroundImageFix" result="effect1_dropShadow"/>
<feBlend mode="normal" in="SourceGraphic" in2="effect1_dropShadow" result="shape"/>
</filter>
<linearGradient id="paint0_linear" x1="72.4135" y1="12.8827" x2="68.285" y2="73.2417" gradientUnits="userSpaceOnUse">
<stop offset="0.453125" stop-color="white"/>
<stop offset="1" stop-color="white" stop-opacity="0"/>
</linearGradient>
<linearGradient id="paint1_linear" x1="80.9947" y1="70.6028" x2="80.7558" y2="74.0947" gradientUnits="userSpaceOnUse">
<stop offset="0.453125" stop-color="white"/>
<stop offset="1" stop-color="white" stop-opacity="0"/>
</linearGradient>
<linearGradient id="paint2_linear" x1="65.5933" y1="42.9874" x2="65.4227" y2="45.4816" gradientUnits="userSpaceOnUse">
<stop offset="0.453125" stop-color="white"/>
<stop offset="1" stop-color="white" stop-opacity="0"/>
</linearGradient>
<linearGradient id="paint3_linear" x1="124.644" y1="11.4436" x2="120.038" y2="78.7863" gradientUnits="userSpaceOnUse">
<stop offset="0.453125" stop-color="white"/>
<stop offset="1" stop-color="white" stop-opacity="0"/>
</linearGradient>
<linearGradient id="paint4_linear" x1="122.188" y1="43.8515" x2="122.12" y2="44.8492" gradientUnits="userSpaceOnUse">
<stop offset="0.453125" stop-color="white"/>
<stop offset="1" stop-color="white" stop-opacity="0"/>
</linearGradient>
<linearGradient id="paint5_linear" x1="184.549" y1="13.9484" x2="166.435" y2="74.5003" gradientUnits="userSpaceOnUse">
<stop offset="0.453125" stop-color="white"/>
<stop offset="1" stop-color="white" stop-opacity="0"/>
</linearGradient>
<linearGradient id="paint6_linear" x1="189.949" y1="49.9792" x2="183.721" y2="70.799" gradientUnits="userSpaceOnUse">
<stop offset="0.453125" stop-color="white"/>
<stop offset="1" stop-color="white" stop-opacity="0"/>
</linearGradient>
<linearGradient id="paint7_linear" x1="520.75" y1="56.4942" x2="520.75" y2="58.9999" gradientUnits="userSpaceOnUse">
<stop offset="0.453125" stop-color="white"/>
<stop offset="1" stop-color="white" stop-opacity="0"/>
</linearGradient>
<linearGradient id="paint8_linear" x1="518" y1="55.9999" x2="518" y2="117" gradientUnits="userSpaceOnUse">
<stop offset="0.453125" stop-color="white"/>
<stop offset="1" stop-color="white" stop-opacity="0"/>
</linearGradient>
<linearGradient id="paint9_linear" x1="461.75" y1="56.4942" x2="461.75" y2="58.9999" gradientUnits="userSpaceOnUse">
<stop offset="0.453125" stop-color="white"/>
<stop offset="1" stop-color="white" stop-opacity="0"/>
</linearGradient>
<linearGradient id="paint10_linear" x1="459" y1="55.9999" x2="459" y2="117" gradientUnits="userSpaceOnUse">
<stop offset="0.453125" stop-color="white"/>
<stop offset="1" stop-color="white" stop-opacity="0"/>
</linearGradient>
<linearGradient id="paint11_linear" x1="728.5" y1="51.9999" x2="728.5" y2="112.5" gradientUnits="userSpaceOnUse">
<stop offset="0.453125" stop-color="white"/>
<stop offset="1" stop-color="white" stop-opacity="0"/>
</linearGradient>
<linearGradient id="paint12_linear" x1="741" y1="109" x2="741" y2="112.5" gradientUnits="userSpaceOnUse">
<stop offset="0.453125" stop-color="white"/>
<stop offset="1" stop-color="white" stop-opacity="0"/>
</linearGradient>
<linearGradient id="paint13_linear" x1="723.75" y1="82.4999" x2="723.75" y2="84.9999" gradientUnits="userSpaceOnUse">
<stop offset="0.453125" stop-color="white"/>
<stop offset="1" stop-color="white" stop-opacity="0"/>
</linearGradient>
<linearGradient id="paint14_linear" x1="575.511" y1="51.9999" x2="575.511" y2="119.5" gradientUnits="userSpaceOnUse">
<stop offset="0.453125" stop-color="white"/>
<stop offset="1" stop-color="white" stop-opacity="0"/>
</linearGradient>
<linearGradient id="paint15_linear" x1="575.272" y1="84.4999" x2="575.272" y2="85.4999" gradientUnits="userSpaceOnUse">
<stop offset="0.453125" stop-color="white"/>
<stop offset="1" stop-color="white" stop-opacity="0"/>
</linearGradient>
<linearGradient id="paint16_linear" x1="408.511" y1="51.9999" x2="408.511" y2="119.5" gradientUnits="userSpaceOnUse">
<stop offset="0.453125" stop-color="white"/>
<stop offset="1" stop-color="white" stop-opacity="0"/>
</linearGradient>
<linearGradient id="paint17_linear" x1="408.272" y1="84.4999" x2="408.272" y2="85.4999" gradientUnits="userSpaceOnUse">
<stop offset="0.453125" stop-color="white"/>
<stop offset="1" stop-color="white" stop-opacity="0"/>
</linearGradient>
<linearGradient id="paint18_linear" x1="351.068" y1="53.9999" x2="351.068" y2="115.311" gradientUnits="userSpaceOnUse">
<stop offset="0.453125" stop-color="white"/>
<stop offset="1" stop-color="white" stop-opacity="0"/>
</linearGradient>
<linearGradient id="paint19_linear" x1="682.25" y1="53.9999" x2="682.25" y2="111" gradientUnits="userSpaceOnUse">
<stop offset="0.453125" stop-color="white"/>
<stop offset="1" stop-color="white" stop-opacity="0"/>
</linearGradient>
<linearGradient id="paint20_linear" x1="627" y1="51.9999" x2="627" y2="118" gradientUnits="userSpaceOnUse">
<stop offset="0.453125" stop-color="white"/>
<stop offset="1" stop-color="white" stop-opacity="0"/>
</linearGradient>
<linearGradient id="paint21_linear" x1="180.437" y1="112.586" x2="160.569" y2="167.863" gradientUnits="userSpaceOnUse">
<stop offset="0.453125" stop-color="white"/>
<stop offset="1" stop-color="white" stop-opacity="0"/>
</linearGradient>
<linearGradient id="paint22_linear" x1="173.14" y1="168.77" x2="171.99" y2="171.968" gradientUnits="userSpaceOnUse">
<stop offset="0.453125" stop-color="white"/>
<stop offset="1" stop-color="white" stop-opacity="0"/>
</linearGradient>
<linearGradient id="paint23_linear" x1="166.081" y1="138.893" x2="165.26" y2="141.177" gradientUnits="userSpaceOnUse">
<stop offset="0.453125" stop-color="white"/>
<stop offset="1" stop-color="white" stop-opacity="0"/>
</linearGradient>
<linearGradient id="paint24_linear" x1="89.9927" y1="80.0789" x2="67.8266" y2="141.752" gradientUnits="userSpaceOnUse">
<stop offset="0.453125" stop-color="white"/>
<stop offset="1" stop-color="white" stop-opacity="0"/>
</linearGradient>
<linearGradient id="paint25_linear" x1="79.1016" y1="109.695" x2="78.7732" y2="110.609" gradientUnits="userSpaceOnUse">
<stop offset="0.453125" stop-color="white"/>
<stop offset="1" stop-color="white" stop-opacity="0"/>
</linearGradient>
<linearGradient id="paint26_linear" x1="137.896" y1="98.7516" x2="104.916" y2="150.499" gradientUnits="userSpaceOnUse">
<stop offset="0.453125" stop-color="white"/>
<stop offset="1" stop-color="white" stop-opacity="0"/>
</linearGradient>
<linearGradient id="paint27_linear" x1="133.381" y1="133.835" x2="122.042" y2="151.628" gradientUnits="userSpaceOnUse">
<stop offset="0.453125" stop-color="white"/>
<stop offset="1" stop-color="white" stop-opacity="0"/>
</linearGradient>
<linearGradient id="paint28_linear" x1="221" y1="59.9999" x2="221" y2="117" gradientUnits="userSpaceOnUse">
<stop offset="0.453125" stop-color="white"/>
<stop offset="1" stop-color="white" stop-opacity="0"/>
</linearGradient>
<linearGradient id="paint29_linear" x1="264" y1="55.9999" x2="264" y2="122" gradientUnits="userSpaceOnUse">
<stop offset="0.453125" stop-color="white"/>
<stop offset="1" stop-color="white" stop-opacity="0"/>
</linearGradient>
<linearGradient id="paint30_linear" x1="29" y1="59.9999" x2="29" y2="126" gradientUnits="userSpaceOnUse">
<stop offset="0.453125" stop-color="white"/>
<stop offset="1" stop-color="white" stop-opacity="0"/>
</linearGradient>
<linearGradient id="paint31_linear" x1="121.439" y1="130.004" x2="121.195" y2="129.034" gradientUnits="userSpaceOnUse">
<stop stop-color="white"/>
<stop offset="1" stop-color="white" stop-opacity="0"/>
</linearGradient>
<linearGradient id="paint32_linear" x1="121.556" y1="130.277" x2="122.248" y2="129.555" gradientUnits="userSpaceOnUse">
<stop stop-color="white"/>
<stop offset="1" stop-color="white" stop-opacity="0"/>
</linearGradient>
</defs>
</svg>
