<svg width="873" height="99" viewBox="0 0 873 99" fill="none" xmlns="http://www.w3.org/2000/svg">
<g filter="url(#filter0_d)">
<path d="M59.9408 30.4178C29.422 19.8062 16.3642 29.7488 13.6502 36.0466C3.93986 51.308 5.82404 50.9212 6.23684 59.9117C5.84515 77.5482 18.9323 85.6899 25.5248 87.5562C48.7004 86.4923 55.2869 81.6852 70.4216 62.4709" stroke="black"/>
<path d="M78.7536 75.2513C73.9436 44.4217 75.9458 21.4406 77.5482 13.8038C86.2033 14.9913 91.1955 16.2308 92.6098 16.7021C108.096 29.6414 109.511 36.0052 111.844 41.7327C113.655 45.9187 115.475 56.5346 116.159 61.3193C114.971 69.9744 114.439 75.2023 114.321 76.7343" stroke="black"/>
<path d="M111.844 41.7327C96.5145 44.7316 81.4627 47.0847 75.853 47.8864" stroke="black"/>
<path d="M128.179 82.7248C118.459 55.4039 119.847 31.3817 120.131 23.0965C128.36 21.5214 146.332 57.3636 155.269 74.733C161.359 80.7503 160.211 65.3693 162.803 52.5271C161.03 31.5415 160.667 18.8911 158.025 15.8426" stroke="black"/>
<path d="M215.926 20.2765C190.236 11.4635 179.238 19.7403 176.95 24.9803C168.767 37.68 170.354 37.3574 170.697 44.8359C170.359 59.5071 181.374 66.2737 186.923 67.8231C206.436 66.9273 211.984 62.9254 224.735 46.935" stroke="black"/>
<path d="M270.821 18.2682C244.948 15.6962 235.828 18.1393 234.503 19.6824C232.287 41.9726 229.388 64.3958 228.215 72.8211C235.261 74.7275 246.609 76.492 251.402 77.136" stroke="black"/>
<path d="M250.905 77.0865C257.392 76.5255 264.453 75.586 267.172 75.1864" stroke="black"/>
<path d="M230.738 47.4461C243.325 47.19 254.652 47.8136 258.35 47.6788" stroke="black"/>
<path d="M276.68 12.2199C280.542 35.0962 282.971 59.499 283.703 68.8408C307.763 64.779 314.431 61.625 314.757 60.5557L314.841 61.0487" stroke="black"/>
<path d="M426.143 77.8448C425.802 68.2949 425.557 59.4279 425.384 51.5294M425.384 51.5294C425.016 34.8083 424.968 22.4281 425.012 17.0997C451.129 17.6738 460.793 20.5767 462.361 21.9564C460.885 33.9256 459.622 43.8926 459.175 47.3799C444.675 49.8425 430.606 51.1723 425.384 51.5294Z" stroke="black"/>
<path d="M462.156 77.2733C454.082 54.9428 443.746 49.8716 439.587 50.1274" stroke="black"/>
<path d="M501.489 8.33112C475.848 12.6356 467.689 17.3853 466.814 19.2221C470.522 41.313 473.606 63.7115 474.685 72.1494C481.984 72.1408 493.398 70.8671 498.192 70.2312" stroke="black"/>
<path d="M497.699 70.314C503.812 68.071 510.379 65.3124 512.898 64.2134" stroke="black"/>
<path d="M470.463 47.0013C482.542 43.4525 493.637 41.0831 497.17 39.983" stroke="black"/>
<path d="M547.152 8.36687C534.448 7.14812 527.553 9.83466 525.694 11.3303C513.545 17.4444 508.292 26.4323 507.184 30.1621C517.228 40.3321 522.417 40.7806 523.756 39.7335C534.849 40.4199 539.405 38.5743 539.405 38.5743L549.678 33.4043C562.389 37.3063 560.219 45.4513 557.545 49.0361C553.809 56.738 548.862 63.2953 546.856 65.6112C535.065 71.5455 528.233 69.7597 526.29 68.125C516.617 63.1417 513.296 58.6187 512.845 56.9801" stroke="black"/>
<path d="M604.21 17.1002C578.367 14.2506 569.221 16.5958 567.879 18.1245C565.424 40.3896 562.284 62.7804 561.021 71.1926C568.046 73.1745 579.375 75.0608 584.161 75.7562" stroke="black"/>
<path d="M583.664 75.7013C590.156 75.21 597.227 74.3464 599.951 73.976" stroke="black"/>
<path d="M563.816 45.8463C576.405 45.7253 587.725 46.4704 591.424 46.3753" stroke="black"/>
<path d="M608.143 82.8448C607.803 73.2949 607.558 64.4279 607.384 56.5294M607.384 56.5294C607.016 39.8083 606.968 27.4281 607.012 22.0997C633.129 22.6738 642.793 25.5767 644.361 26.9564C642.885 38.9256 641.622 48.8926 641.175 52.3799C626.675 54.8425 612.606 56.1723 607.384 56.5294Z" stroke="black"/>
<path d="M644.156 82.2733C636.082 59.9428 625.746 54.8716 621.587 55.1274" stroke="black"/>
<path d="M647.687 16.4676C655.232 58.1293 658.744 75.3617 660.948 77.0203C666.036 78.0959 674.836 68.5428 676.281 64.9302C683.834 55.795 688.192 27.9272 688.6 23.5842" stroke="black"/>
<path d="M689.022 84C688.622 52.8 693.855 30.3333 696.522 23C704.922 25.4 709.688 27.3333 711.022 28C724.522 43 725.022 49.5 726.522 55.5C727.722 59.9 728.022 70.6667 728.022 75.5C725.622 83.9 724.355 89 724.022 90.5" stroke="black"/>
<path d="M726.522 55.5C710.922 56.3 695.688 56.5 690.022 56.5" stroke="black"/>
<path d="M769.5 20C732.3 16.8 717 17.3333 714 18" stroke="black"/>
<path d="M737 78C739 47.1584 740.5 24.4827 741 17" stroke="black"/>
<path d="M771.473 87.4816C770.533 58.9174 768.654 34.5921 767.832 26" stroke="black"/>
<path d="M792.771 17C787.04 18.1584 775.664 26.6316 776.008 51.2568C776.008 53.0772 777.125 57.4131 781.595 60.1933C786.037 65.8201 798.874 74.9883 814.691 66.6475C817.127 65.3236 821.998 57.9096 821.998 38.8449C822.142 35.0386 812.112 20.9718 792.771 17Z" stroke="black"/>
<path d="M829.456 75.5C825.456 49.5 830.789 28.3333 832.456 21C840.056 21 849.956 56 854.956 73C859.356 79.4 860.956 65.5 865.456 54.5C867.456 35.5 869.289 24.1667 867.456 21" stroke="black"/>
<path d="M341.49 60.2961C348.21 33.4599 357.782 15.3854 361.728 9.70268C368.385 13.6616 372.034 16.3979 373.026 17.2712C381.203 33.1857 380.16 38.8709 380.088 44.3539C380.121 48.3973 377.94 57.6948 376.846 61.8381C372.887 68.4955 370.647 72.5807 370.022 73.7911" stroke="black"/>
<path d="M380.088 44.3538C366.534 41.5082 353.43 38.2313 348.572 36.9485" stroke="black"/>
</g>
<defs>
<filter id="filter0_d" x="0.0739746" y="1.43359" width="872.637" height="97.1749" filterUnits="userSpaceOnUse" color-interpolation-filters="sRGB">
<feFlood flood-opacity="0" result="BackgroundImageFix"/>
<feColorMatrix in="SourceAlpha" type="matrix" values="0 0 0 0 0 0 0 0 0 0 0 0 0 0 0 0 0 0 127 0"/>
<feOffset dy="4"/>
<feGaussianBlur stdDeviation="2"/>
<feColorMatrix type="matrix" values="0 0 0 0 0 0 0 0 0 0 0 0 0 0 0 0 0 0 0.25 0"/>
<feBlend mode="normal" in2="BackgroundImageFix" result="effect1_dropShadow"/>
<feBlend mode="normal" in="SourceGraphic" in2="effect1_dropShadow" result="shape"/>
</filter>
</defs>
</svg>
