<svg width="187" height="194" viewBox="0 0 187 194" fill="none" xmlns="http://www.w3.org/2000/svg">
<g filter="url(#filter0_d)">
<path d="M41.1325 72.7211C41.9875 65.3142 47.6578 52.3571 63.4994 59.7836C61.971 63.8456 60.6414 65.7805 60.1676 66.2402C50.502 58.7207 46.3741 73.1498 47.2516 77.8946C48.5996 85.1825 52.9056 85.7091 54.89 85.0614C58.6795 84.4367 60.4671 79.4237 61.2383 78.2907L64.8296 78.5631C71.025 78.1695 64.9409 85.3058 63.6046 87.3219C58.9521 91.5133 54.7188 92.3282 53.1838 92.2118C48.5897 92.7707 39.7477 89.655 41.1325 72.7211Z" fill="url(#paint0_linear)"/>
<path d="M41.1325 72.7211C41.9875 65.3142 47.6578 52.3571 63.4994 59.7836C61.971 63.8456 60.6414 65.7805 60.1676 66.2402C50.502 58.7207 46.3741 73.1498 47.2516 77.8946C48.5996 85.1825 52.9056 85.7091 54.89 85.0614C58.6795 84.4367 60.4671 79.4237 61.2383 78.2907L64.8296 78.5631C71.025 78.1695 64.9409 85.3058 63.6046 87.3219C58.9521 91.5133 54.7188 92.3282 53.1838 92.2118C48.5897 92.7707 39.7477 89.655 41.1325 72.7211Z" fill="url(#paint1_linear)"/>
<path d="M41.1325 72.7211C41.9875 65.3142 47.6578 52.3571 63.4994 59.7836C61.971 63.8456 60.6414 65.7805 60.1676 66.2402C50.502 58.7207 46.3741 73.1498 47.2516 77.8946C48.5996 85.1825 52.9056 85.7091 54.89 85.0614C58.6795 84.4367 60.4671 79.4237 61.2383 78.2907L64.8296 78.5631C71.025 78.1695 64.9409 85.3058 63.6046 87.3219C58.9521 91.5133 54.7188 92.3282 53.1838 92.2118C48.5897 92.7707 39.7477 89.655 41.1325 72.7211Z" stroke="black" stroke-width="2"/>
<path d="M41.1325 72.7211C41.9875 65.3142 47.6578 52.3571 63.4994 59.7836C61.971 63.8456 60.6414 65.7805 60.1676 66.2402C50.502 58.7207 46.3741 73.1498 47.2516 77.8946C48.5996 85.1825 52.9056 85.7091 54.89 85.0614C58.6795 84.4367 60.4671 79.4237 61.2383 78.2907L64.8296 78.5631C71.025 78.1695 64.9409 85.3058 63.6046 87.3219C58.9521 91.5133 54.7188 92.3282 53.1838 92.2118C48.5897 92.7707 39.7477 89.655 41.1325 72.7211Z" stroke="url(#paint2_radial)" stroke-width="2"/>
</g>
<g filter="url(#filter1_d)">
<path fill-rule="evenodd" clip-rule="evenodd" d="M17.8608 50.3202C9.12877 66.5461 10.1577 77.3779 9.92739 80.3498C9.58607 84.7533 8.74527 88.3686 10.9224 89.2092C20.7332 90.1002 26.9938 89.8462 28.2735 89.8823C38.2054 86.4735 36.4983 80.3201 34.4033 77.6696C30.2821 72.4909 26.3846 71.0379 25.2245 71.0354C34.911 71.0566 37.3609 68.9536 36.916 68.6999C42.8225 62.8092 38.9523 57.8535 33.2292 55.2486C29.4252 52.9304 24.7029 51.4808 22.2092 50.6572C21.2362 50.3359 18.6082 48.6343 17.8608 50.3202ZM32.7421 61.5331C32.3882 60.7246 28.3636 57.7914 21.7547 56.5205C20.341 56.9628 18.4462 60.0435 17.2255 66.473C18.1129 66.5281 21.0904 66.627 25.9012 66.5817C29.4604 66.9983 36.6022 65.71 32.7421 61.5331ZM15.8382 85.2379C15.7667 82.9607 15.8277 77.264 16.6434 72.6944C19.4062 72.501 26.4643 73.5496 29.839 80.8408C29.6522 82.6586 26.5905 86.0831 15.8382 85.2379Z" fill="url(#paint3_linear)"/>
<path fill-rule="evenodd" clip-rule="evenodd" d="M17.8608 50.3202C9.12877 66.5461 10.1577 77.3779 9.92739 80.3498C9.58607 84.7533 8.74527 88.3686 10.9224 89.2092C20.7332 90.1002 26.9938 89.8462 28.2735 89.8823C38.2054 86.4735 36.4983 80.3201 34.4033 77.6696C30.2821 72.4909 26.3846 71.0379 25.2245 71.0354C34.911 71.0566 37.3609 68.9536 36.916 68.6999C42.8225 62.8092 38.9523 57.8535 33.2292 55.2486C29.4252 52.9304 24.7029 51.4808 22.2092 50.6572C21.2362 50.3359 18.6082 48.6343 17.8608 50.3202ZM32.7421 61.5331C32.3882 60.7246 28.3636 57.7914 21.7547 56.5205C20.341 56.9628 18.4462 60.0435 17.2255 66.473C18.1129 66.5281 21.0904 66.627 25.9012 66.5817C29.4604 66.9983 36.6022 65.71 32.7421 61.5331ZM15.8382 85.2379C15.7667 82.9607 15.8277 77.264 16.6434 72.6944C19.4062 72.501 26.4643 73.5496 29.839 80.8408C29.6522 82.6586 26.5905 86.0831 15.8382 85.2379Z" fill="url(#paint4_linear)"/>
<path fill-rule="evenodd" clip-rule="evenodd" d="M17.8608 50.3202C9.12877 66.5461 10.1577 77.3779 9.92739 80.3498C9.58607 84.7533 8.74527 88.3686 10.9224 89.2092C20.7332 90.1002 26.9938 89.8462 28.2735 89.8823C38.2054 86.4735 36.4983 80.3201 34.4033 77.6696C30.2821 72.4909 26.3846 71.0379 25.2245 71.0354C34.911 71.0566 37.3609 68.9536 36.916 68.6999C42.8225 62.8092 38.9523 57.8535 33.2292 55.2486C29.4252 52.9304 24.7029 51.4808 22.2092 50.6572C21.2362 50.3359 18.6082 48.6343 17.8608 50.3202ZM32.7421 61.5331C32.3882 60.7246 28.3636 57.7914 21.7547 56.5205C20.341 56.9628 18.4462 60.0435 17.2255 66.473C18.1129 66.5281 21.0904 66.627 25.9012 66.5817C29.4604 66.9983 36.6022 65.71 32.7421 61.5331ZM15.8382 85.2379C15.7667 82.9607 15.8277 77.264 16.6434 72.6944C19.4062 72.501 26.4643 73.5496 29.839 80.8408C29.6522 82.6586 26.5905 86.0831 15.8382 85.2379Z" stroke="black" stroke-width="2"/>
<path fill-rule="evenodd" clip-rule="evenodd" d="M17.8608 50.3202C9.12877 66.5461 10.1577 77.3779 9.92739 80.3498C9.58607 84.7533 8.74527 88.3686 10.9224 89.2092C20.7332 90.1002 26.9938 89.8462 28.2735 89.8823C38.2054 86.4735 36.4983 80.3201 34.4033 77.6696C30.2821 72.4909 26.3846 71.0379 25.2245 71.0354C34.911 71.0566 37.3609 68.9536 36.916 68.6999C42.8225 62.8092 38.9523 57.8535 33.2292 55.2486C29.4252 52.9304 24.7029 51.4808 22.2092 50.6572C21.2362 50.3359 18.6082 48.6343 17.8608 50.3202ZM32.7421 61.5331C32.3882 60.7246 28.3636 57.7914 21.7547 56.5205C20.341 56.9628 18.4462 60.0435 17.2255 66.473C18.1129 66.5281 21.0904 66.627 25.9012 66.5817C29.4604 66.9983 36.6022 65.71 32.7421 61.5331ZM15.8382 85.2379C15.7667 82.9607 15.8277 77.264 16.6434 72.6944C19.4062 72.501 26.4643 73.5496 29.839 80.8408C29.6522 82.6586 26.5905 86.0831 15.8382 85.2379Z" stroke="url(#paint5_radial)" stroke-width="2"/>
</g>
<g filter="url(#filter2_d)">
<path d="M129.164 56.3144C129.249 57.8343 119.028 55.1953 117.288 53.6554L121.372 47.8041M121.372 47.8041L126.391 50.9553L134.829 53.3194M121.372 47.8041L118.973 42.077C108.168 51.5208 114.692 57.5538 119.305 59.3898C97.2128 53.1739 125.854 29.5572 142.937 18.5259M123.618 45.5962L121.227 40.2298C127.24 35.4962 128.826 38.641 130.199 30.6767C134.394 30.5964 131.87 38.2218 130.379 40.0545C125.814 40.7192 125.777 45.4346 126.329 47.7092L132.431 47.5923C134.117 40.055 134.396 30.7166 134.325 26.9896" stroke="black"/>
<path d="M107.421 41.0148C106.503 42.2668 100.149 34.2543 99.7729 32.0265L106.786 29.7618M106.786 29.7618L108.705 35.1655L113.83 41.9272M106.786 29.7618L108.603 23.8381C93.9602 25.051 95.1996 33.608 97.6497 37.7349C84.2462 20.0103 122.143 17.9157 142.766 19.084M109.988 29.3161L111.578 23.6819C119.388 23.4198 118.603 26.8285 124.845 21.3201C128.207 23.6876 121.276 28.2609 118.912 28.8475C114.88 26.7279 111.796 30.4392 110.758 32.5598L115.648 36.0035C121.861 31.0147 128.131 23.7842 130.489 20.7925" stroke="black"/>
<path d="M139.061 23.5768C138.758 22.0824 149.266 23.3792 151.213 24.68L148.008 31.0013M148.008 31.0013L142.58 28.5271L133.878 27.2729M148.008 31.0013L151.21 36.3643C160.558 25.6189 153.224 20.4846 148.388 19.2606C171.176 22.5702 146.194 49.6503 130.855 62.7767M146.1 33.4774L149.243 38.4841C143.966 43.947 141.941 41.0368 141.727 49.1014C137.582 49.7215 138.985 41.8441 140.199 39.837C144.627 38.5904 143.984 33.9156 143.11 31.7341L137.08 32.636C136.494 40.3181 137.563 49.6027 138.17 53.2847" stroke="black"/>
<path d="M75.2849 44.2757C73.6757 44.2666 77.101 34.7712 78.8351 33.2177L84.754 37.4154M84.754 37.4154L81.114 41.9706L78.0905 49.799M84.754 37.4154L90.948 35.4853C81.6591 24.7317 74.8839 30.5393 72.6573 34.7873C80.6011 14.2922 103.729 42.7132 114.3 59.4857M86.9432 39.6655L92.7561 37.7208C97.3747 43.6744 93.9566 44.9882 102.275 46.75C102.097 50.7151 94.2082 47.8865 92.3677 46.3719C91.9522 42.0231 86.9785 41.7129 84.5435 42.1015L84.2846 47.8689C92.1328 49.9016 101.97 50.7103 105.908 50.8605" stroke="black"/>
<path d="M145.213 155C150.38 155.167 161.513 159 164.713 173C165.046 176.833 162.013 184.5 147.213 184.5C145.546 182.333 138.013 178 121.213 178C111.046 180.333 84.813 183.2 69.213 176C63.8796 173.5 52.7132 162.5 56.2131 139C56.2131 136.333 59.2131 125 69.213 113.5C75.0463 108 88.8308 96 92.7131 84C94.5465 78.3333 99.5466 63 106.713 56C112.213 56 116.013 62.4 119.213 66C121.88 66 128.413 66 133.213 66C134.213 64.1667 137.047 58 142.213 56C149.547 56 155.88 111.333 153.213 125C151.213 137.8 147.046 150.333 145.213 155ZM145.213 155C120.013 152.6 99.7131 157 92.7131 159.5C80.2131 159.5 77.7131 157.833 75.7131 157M102.713 85C107.713 93.5 114.046 87.3333 116.213 86M131.213 86C137.713 93.5 142.713 87.6667 143.713 85M112.213 99C117.713 105.5 122.713 99.5 123.213 95.2444C123.713 98 127.713 105.5 134.713 99" stroke="black" stroke-width="2.5"/>
<path d="M122.862 96C116.954 92.7977 120.222 91.8794 122.862 92.0123C130.317 92.0123 124.409 96 122.862 96Z" stroke="black"/>
<path d="M123.797 92.25L131.297 92.25L131.297 153.75L123.797 153.75L123.797 92.25Z" fill="#844505" fill-opacity="0.95" stroke="#8F5A24" stroke-width="0.5"/>
<path d="M137.547 154.216C128.347 153.588 119.047 154.477 115.547 155" stroke="black" stroke-width="2"/>
<path fill-rule="evenodd" clip-rule="evenodd" d="M151.221 118.982C164.131 116.712 169.804 111.187 171.305 109.062C176.007 104.441 177.204 92.8458 176.606 90.5347C176.415 86.9645 175.571 83.9733 175.173 82.924C180.911 80.9323 180.526 74.889 180.115 72.445C178.038 67.0664 173.682 66.418 171.74 66.1289C171.596 66.1075 171.465 66.088 171.349 66.0687C167.564 65.1917 164.655 67.9009 163.619 69.6938C153.356 65.2911 145.645 65.5748 143.072 66.267C140.003 58.7394 133.909 58.8359 131.107 59.9247C124.412 61.7569 122.698 72.0369 127.85 75.0314C120.762 83.3461 120.69 92.9159 121.539 96.6615C125.777 110.146 135.573 116.141 139.941 117.452C144.359 119.319 149.16 119.284 151.221 118.982ZM135.701 89.9973C134.585 89.3198 134.426 84.3789 138.849 84.3794C140.85 84.3796 143.59 86.8902 141.279 90.4363C140.176 91.1534 137.645 92.4839 135.701 89.9973ZM164.15 90.3193C164.987 92.6703 161.958 97.571 157.456 93.6257C156.912 92.9616 156.213 91.0595 157.775 88.7646C158.918 87.8084 162.849 86.6622 164.15 90.3193Z" fill="#A56B30" fill-opacity="0.95"/>
<path d="M138.112 116.55C138.708 116.891 139.321 117.191 139.941 117.452M139.941 117.452C144.359 119.319 149.16 119.284 151.221 118.982C164.131 116.712 169.804 111.187 171.305 109.062C176.007 104.441 177.204 92.8458 176.606 90.5347C176.415 86.9645 175.571 83.9733 175.173 82.924C180.911 80.9323 180.526 74.889 180.115 72.445C178.038 67.0664 173.682 66.418 171.74 66.1289C171.596 66.1075 171.465 66.088 171.349 66.0687C167.564 65.1917 164.655 67.9009 163.619 69.6938C153.356 65.2911 145.645 65.5748 143.072 66.267C140.003 58.7394 133.909 58.8359 131.107 59.9247C124.412 61.7569 122.698 72.0369 127.85 75.0314C120.762 83.3461 120.69 92.9159 121.539 96.6615C125.777 110.146 135.573 116.141 139.941 117.452ZM138.849 84.3794C134.426 84.3789 134.585 89.3198 135.701 89.9973C137.645 92.4839 140.176 91.1534 141.279 90.4363C143.59 86.8902 140.85 84.3796 138.849 84.3794ZM157.456 93.6257C161.958 97.571 164.987 92.6703 164.15 90.3193C162.849 86.6622 158.918 87.8084 157.775 88.7646C156.213 91.0595 156.912 92.9616 157.456 93.6257Z" stroke="#8F5A24" stroke-width="0.5"/>
<path d="M135.853 100.96C133.462 104.985 132.783 111.997 138.282 115.863L141.947 117.457C143.78 118.254 149.837 118.773 151.909 118.136C152.865 118.295 155.176 116.813 156.77 115.507C157.302 115.267 159.56 110.566 159.242 106.581C159.401 105.134 158.087 100.246 154.66 97.217C152.27 95.344 147.807 94.1083 143.743 94.9047C140.515 96.5779 139.798 96.4583 135.853 100.96Z" fill="#CD9A66" fill-opacity="0.95" stroke="#CD9A66"/>
<path d="M143.623 101.519C147.639 102.189 150.835 102.968 152.189 103.194C153.663 104.668 152.402 106.341 151.83 106.819C149.758 108.931 147.606 109.064 146.77 109.17C144.283 108.755 142.785 106.54 142.028 105.185C141.009 103.049 141.869 102.21 142.308 102.037C142.627 101.599 143.45 101.572 143.623 101.519Z" fill="black" fill-opacity="0.95" stroke="black"/>
<path d="M146.491 109.369C146.363 110.134 146.198 111.122 146.132 111.521C147.407 114.19 149.917 114.363 150.594 114.231C152.029 113.88 152.999 113.075 153.304 112.717" stroke="black"/>
<path d="M138.721 110.285C140.075 112.476 141.483 112.875 141.749 112.755C143.582 113.553 145.494 111.906 146.172 111.282" stroke="black"/>
<path d="M173.39 79.2088C172.593 78.093 170.721 74.5863 167.255 71.7967L168.092 71.1991L169.167 70.6414C169.818 70.1766 172.036 69.6456 174.467 72.7539C175.383 73.6439 176.857 76.1012 173.39 79.2088Z" fill="#CD9A66" fill-opacity="0.95" stroke="#CD9A66"/>
<path d="M130.771 72.2231C132.166 71.2271 135.912 68.8049 138.781 66.9245C138.661 66.6589 138.454 66.2312 137.785 65.5298C137.134 65.0117 135.341 63.1565 131.369 65.6884C130.453 66.2728 128.46 68.3977 130.771 72.2231Z" fill="#CD9A66" fill-opacity="0.95" stroke="#CD9A66"/>
</g>
<defs>
<filter id="filter0_d" x="34.537" y="55.4253" width="39.8659" height="47.125" filterUnits="userSpaceOnUse" color-interpolation-filters="sRGB">
<feFlood flood-opacity="0" result="BackgroundImageFix"/>
<feColorMatrix in="SourceAlpha" type="matrix" values="0 0 0 0 0 0 0 0 0 0 0 0 0 0 0 0 0 0 127 0"/>
<feOffset dy="4"/>
<feGaussianBlur stdDeviation="2"/>
<feColorMatrix type="matrix" values="0 0 0 0 0 0 0 0 0 0 0 0 0 0 0 0 0 0 0.25 0"/>
<feBlend mode="normal" in2="BackgroundImageFix" result="effect1_dropShadow"/>
<feBlend mode="normal" in="SourceGraphic" in2="effect1_dropShadow" result="shape"/>
</filter>
<filter id="filter1_d" x="0.285156" y="47.5169" width="48.4112" height="56.993" filterUnits="userSpaceOnUse" color-interpolation-filters="sRGB">
<feFlood flood-opacity="0" result="BackgroundImageFix"/>
<feColorMatrix in="SourceAlpha" type="matrix" values="0 0 0 0 0 0 0 0 0 0 0 0 0 0 0 0 0 0 127 0"/>
<feOffset dy="4"/>
<feGaussianBlur stdDeviation="2"/>
<feColorMatrix type="matrix" values="0 0 0 0 0 0 0 0 0 0 0 0 0 0 0 0 0 0 0.25 0"/>
<feBlend mode="normal" in2="BackgroundImageFix" result="effect1_dropShadow"/>
<feBlend mode="normal" in="SourceGraphic" in2="effect1_dropShadow" result="shape"/>
</filter>
<filter id="filter2_d" x="50.2971" y="18.0957" width="135.767" height="175.654" filterUnits="userSpaceOnUse" color-interpolation-filters="sRGB">
<feFlood flood-opacity="0" result="BackgroundImageFix"/>
<feColorMatrix in="SourceAlpha" type="matrix" values="0 0 0 0 0 0 0 0 0 0 0 0 0 0 0 0 0 0 127 0"/>
<feOffset dy="4"/>
<feGaussianBlur stdDeviation="2"/>
<feColorMatrix type="matrix" values="0 0 0 0 0 0 0 0 0 0 0 0 0 0 0 0 0 0 0.25 0"/>
<feBlend mode="normal" in2="BackgroundImageFix" result="effect1_dropShadow"/>
<feBlend mode="normal" in="SourceGraphic" in2="effect1_dropShadow" result="shape"/>
</filter>
<linearGradient id="paint0_linear" x1="44.4473" y1="89.1604" x2="55.0927" y2="78.2468" gradientUnits="userSpaceOnUse">
<stop stop-color="#903030" stop-opacity="0"/>
<stop offset="1" stop-color="#903030"/>
</linearGradient>
<linearGradient id="paint1_linear" x1="49.4773" y1="90.5108" x2="57.2787" y2="76.5937" gradientUnits="userSpaceOnUse">
<stop stop-color="#700D66"/>
<stop offset="1" stop-color="white" stop-opacity="0"/>
</linearGradient>
<radialGradient id="paint2_radial" cx="0" cy="0" r="1" gradientUnits="userSpaceOnUse" gradientTransform="translate(68.2108 61.6003) rotate(128.219) scale(40.4576 58.5594)">
<stop stop-color="#642222" stop-opacity="0"/>
<stop offset="1" stop-color="#913030"/>
</radialGradient>
<linearGradient id="paint3_linear" x1="10.9271" y1="91.0291" x2="42.3122" y2="57.5597" gradientUnits="userSpaceOnUse">
<stop offset="0.423688" stop-color="#903030"/>
<stop offset="1" stop-color="#903030" stop-opacity="0"/>
</linearGradient>
<linearGradient id="paint4_linear" x1="29.947" y1="52.536" x2="19.0368" y2="91.4823" gradientUnits="userSpaceOnUse">
<stop stop-color="#700D66"/>
<stop offset="0.677083" stop-color="white" stop-opacity="0"/>
</linearGradient>
<radialGradient id="paint5_radial" cx="0" cy="0" r="1" gradientUnits="userSpaceOnUse" gradientTransform="translate(34.741 60.4218) rotate(131.081) scale(40.1341 27.4356)">
<stop stop-color="#A04D4D" stop-opacity="0.859375"/>
<stop offset="0.0001" stop-color="#642222" stop-opacity="0"/>
<stop offset="1" stop-color="#903030"/>
</radialGradient>
</defs>
</svg>
