<svg width="137" height="194" viewBox="0 0 137 194" fill="none" xmlns="http://www.w3.org/2000/svg">
<g filter="url(#filter0_d)">
<path d="M79.6178 56.3144C79.7022 57.8343 69.4818 55.1953 67.7411 53.6554L71.8253 47.8041M71.8253 47.8041L76.8448 50.9553L85.2826 53.3194M71.8253 47.8041L69.4267 42.077C58.6211 51.5208 65.1454 57.5538 69.7583 59.3898C47.6662 53.1739 76.3078 29.5572 93.3901 18.5259M74.0718 45.5962L71.6802 40.2298C77.6932 35.4962 79.2793 38.641 80.6527 30.6767C84.8474 30.5964 82.3231 38.2218 80.8323 40.0545C76.2673 40.7192 76.2304 45.4346 76.7826 47.7092L82.884 47.5923C84.5708 40.055 84.8497 30.7166 84.7783 26.9896" stroke="black"/>
<path d="M57.8742 41.0148C56.9562 42.2668 50.6021 34.2543 50.2263 32.0265L57.2391 29.7618M57.2391 29.7618L59.158 35.1655L64.2837 41.9272M57.2391 29.7618L59.0567 23.8381C44.4136 25.051 45.6529 33.608 48.103 37.7349C34.6996 20.0103 72.5961 17.9157 93.2198 19.084M60.4419 29.3161L62.0313 23.6819C69.8418 23.4198 69.056 26.8285 75.2989 21.3201C78.6604 23.6876 71.729 28.2609 69.3656 28.8475C65.3333 26.7279 62.2496 30.4392 61.2118 32.5598L66.1014 36.0035C72.3148 31.0147 78.5844 23.7842 80.9424 20.7925" stroke="black"/>
<path d="M89.514 23.5768C89.2115 22.0824 99.7196 23.3792 101.666 24.68L98.4618 31.0013M98.4618 31.0013L93.0338 28.5271L84.3317 27.2729M98.4618 31.0013L101.663 36.3643C111.011 25.6189 103.677 20.4846 98.8416 19.2606C121.629 22.5702 96.6476 49.6503 81.3082 62.7767M96.5535 33.4774L99.6964 38.4841C94.4194 43.947 92.3947 41.0368 92.1807 49.1014C88.0355 49.7215 89.4388 41.8441 90.6522 39.837C95.0802 38.5904 94.4377 33.9156 93.5629 31.7341L87.5334 32.636C86.9474 40.3181 88.0159 49.6027 88.6234 53.2847" stroke="black"/>
<path d="M25.7382 44.2757C24.1291 44.2666 27.5544 34.7712 29.2885 33.2177L35.2073 37.4154M35.2073 37.4154L31.5674 41.9706L28.5439 49.799M35.2073 37.4154L41.4013 35.4853C32.1125 24.7317 25.3372 30.5393 23.1107 34.7873C31.0544 14.2922 54.1821 42.7132 64.7529 59.4857M37.3965 39.6655L43.2095 37.7208C47.828 43.6744 44.41 44.9882 52.7284 46.75C52.5504 50.7151 44.6615 47.8865 42.821 46.3719C42.4055 42.0231 37.4318 41.7129 34.9969 42.1015L34.7379 47.8689C42.5862 49.9016 52.4234 50.7103 56.3609 50.8605" stroke="black"/>
<path d="M95.6665 155C100.833 155.167 111.967 159 115.167 173C115.5 176.833 112.467 184.5 97.6665 184.5C95.9998 182.333 88.4664 178 71.6664 178C61.4998 180.333 35.2664 183.2 19.6663 176C14.333 173.5 3.16658 162.5 6.66649 139C6.66649 136.333 9.6665 125 19.6663 113.5C25.4997 108 39.2842 96 43.1665 84C44.9998 78.3333 50 63 57.1665 56C62.6665 56 66.4664 62.4 69.6664 66C72.333 66 78.8663 66 83.6663 66C84.6663 64.1667 87.5 58 92.6663 56C100 56 106.333 111.333 103.667 125C101.667 137.8 97.4998 150.333 95.6665 155ZM95.6665 155C70.4665 152.6 50.1665 157 43.1665 159.5C30.6665 159.5 28.1665 157.833 26.1665 157M53.1665 85C58.1665 93.5 64.4998 87.3333 66.6665 86M81.6665 86C88.1665 93.5 93.1666 87.6667 94.1665 85M62.6665 99C68.1665 105.5 73.1665 99.5 73.6665 95.2444C74.1665 98 78.1665 105.5 85.1665 99" stroke="black" stroke-width="2.5"/>
<path d="M73.3155 96C67.407 92.7977 70.6752 91.8794 73.3155 92.0123C80.7705 92.0123 74.862 96 73.3155 96Z" stroke="black"/>
<path d="M74.25 92.25L81.75 92.25L81.75 153.75L74.25 153.75L74.25 92.25Z" fill="#844505" fill-opacity="0.95" stroke="#8F5A24" stroke-width="0.5"/>
<path d="M88 154.216C78.8 153.588 69.5 154.477 66 155" stroke="black" stroke-width="2"/>
<path fill-rule="evenodd" clip-rule="evenodd" d="M101.675 118.982C114.585 116.712 120.257 111.187 121.758 109.062C126.46 104.441 127.657 92.8458 127.06 90.5347C126.869 86.9645 126.024 83.9733 125.626 82.924C131.364 80.9323 130.98 74.889 130.568 72.445C128.491 67.0664 124.135 66.418 122.193 66.1289C122.049 66.1075 121.918 66.088 121.803 66.0687C118.017 65.1917 115.108 67.9009 114.072 69.6938C103.809 65.2911 96.0979 65.5748 93.5253 66.267C90.456 58.7394 84.3625 58.8359 81.5599 59.9247C74.8656 61.7569 73.1511 72.0369 78.3032 75.0314C71.2158 83.3461 71.1431 92.9159 71.9927 96.6615C76.2308 110.146 86.0263 116.141 90.3943 117.452C94.812 119.319 99.6129 119.284 101.675 118.982ZM86.1539 89.9973C85.0383 89.3198 84.8795 84.3789 89.3024 84.3794C91.3031 84.3796 94.0438 86.8902 91.7323 90.4363C90.6298 91.1534 88.0981 92.4839 86.1539 89.9973ZM114.604 90.3193C115.44 92.6703 112.412 97.571 107.909 93.6257C107.365 92.9616 106.666 91.0595 108.229 88.7646C109.371 87.8084 113.303 86.6622 114.604 90.3193Z" fill="#A56B30" fill-opacity="0.95"/>
<path d="M88.5655 116.55C89.1618 116.891 89.7743 117.191 90.3943 117.452M90.3943 117.452C94.812 119.319 99.6129 119.284 101.675 118.982C114.585 116.712 120.257 111.187 121.758 109.062C126.46 104.441 127.657 92.8458 127.06 90.5347C126.869 86.9645 126.024 83.9733 125.626 82.924C131.364 80.9323 130.98 74.889 130.568 72.445C128.491 67.0664 124.135 66.418 122.193 66.1289C122.049 66.1075 121.918 66.088 121.803 66.0687C118.017 65.1917 115.108 67.9009 114.072 69.6938C103.809 65.2911 96.0979 65.5748 93.5253 66.267C90.456 58.7394 84.3625 58.8359 81.5599 59.9247C74.8656 61.7569 73.1511 72.0369 78.3032 75.0314C71.2158 83.3461 71.1431 92.9159 71.9927 96.6615C76.2308 110.146 86.0263 116.141 90.3943 117.452ZM89.3024 84.3794C84.8795 84.3789 85.0383 89.3198 86.1539 89.9973C88.0981 92.4839 90.6298 91.1534 91.7323 90.4363C94.0438 86.8902 91.3031 84.3796 89.3024 84.3794ZM107.909 93.6257C112.412 97.571 115.44 92.6703 114.604 90.3193C113.303 86.6622 109.371 87.8084 108.229 88.7646C106.666 91.0595 107.365 92.9616 107.909 93.6257Z" stroke="#8F5A24" stroke-width="0.5"/>
<path d="M86.3062 100.96C83.915 104.985 83.2368 111.997 88.7351 115.863L92.4008 117.457C94.2336 118.254 100.29 118.773 102.362 118.136C103.318 118.295 105.63 116.813 107.224 115.507C107.755 115.267 110.013 110.566 109.695 106.581C109.855 105.134 108.54 100.246 105.114 97.217C102.723 95.344 98.2607 94.1083 94.1964 94.9047C90.9687 96.5779 90.2514 96.4583 86.3062 100.96Z" fill="#CD9A66" fill-opacity="0.95" stroke="#CD9A66"/>
<path d="M94.0761 101.519C98.0925 102.189 101.288 102.968 102.643 103.194C104.117 104.668 102.855 106.341 102.284 106.819C100.211 108.931 98.0598 109.064 97.223 109.17C94.7367 108.755 93.2387 106.54 92.4818 105.185C91.462 103.049 92.3228 102.21 92.7611 102.037C93.0799 101.599 93.9034 101.572 94.0761 101.519Z" fill="black" fill-opacity="0.95" stroke="black"/>
<path d="M96.9442 109.369C96.8166 110.134 96.6518 111.122 96.5853 111.521C97.8601 114.19 100.37 114.363 101.048 114.231C102.482 113.88 103.452 113.075 103.757 112.717" stroke="black"/>
<path d="M89.1741 110.285C90.5286 112.476 91.9364 112.875 92.2021 112.755C94.0349 113.553 95.9477 111.906 96.6252 111.282" stroke="black"/>
<path d="M123.843 79.2088C123.047 78.093 121.174 74.5863 117.708 71.7967L118.545 71.1991L119.621 70.6414C120.272 70.1766 122.49 69.6456 124.92 72.7539C125.836 73.6439 127.31 76.1012 123.843 79.2088Z" fill="#CD9A66" fill-opacity="0.95" stroke="#CD9A66"/>
<path d="M81.2244 72.2231C82.6192 71.2271 86.3649 68.8049 89.2341 66.9245C89.1145 66.6589 88.9074 66.2312 88.2381 65.5298C87.5873 65.0117 85.7944 63.1565 81.8229 65.6884C80.9063 66.2728 78.9138 68.3977 81.2244 72.2231Z" fill="#CD9A66" fill-opacity="0.95" stroke="#CD9A66"/>
</g>
<defs>
<filter id="filter0_d" x="0.750549" y="18.0958" width="135.767" height="175.654" filterUnits="userSpaceOnUse" color-interpolation-filters="sRGB">
<feFlood flood-opacity="0" result="BackgroundImageFix"/>
<feColorMatrix in="SourceAlpha" type="matrix" values="0 0 0 0 0 0 0 0 0 0 0 0 0 0 0 0 0 0 127 0"/>
<feOffset dy="4"/>
<feGaussianBlur stdDeviation="2"/>
<feColorMatrix type="matrix" values="0 0 0 0 0 0 0 0 0 0 0 0 0 0 0 0 0 0 0.25 0"/>
<feBlend mode="normal" in2="BackgroundImageFix" result="effect1_dropShadow"/>
<feBlend mode="normal" in="SourceGraphic" in2="effect1_dropShadow" result="shape"/>
</filter>
</defs>
</svg>
