<svg width="313" height="61" viewBox="0 0 313 61" fill="none" xmlns="http://www.w3.org/2000/svg">
<g filter="url(#filter0_d)">
<path d="M67.7905 44.3531C65.5339 28.9797 63.0297 15.9538 62.0597 11.3625" stroke="black"/>
<path d="M90.6716 12.6857C75.5213 11.232 70.6481 17.2307 70.1052 20.4118C67.3553 28.4694 68.1749 28.0828 69.3626 32.1468C71.1426 40.2528 78.0383 42.5179 81.2637 42.6372C91.7552 39.571 94.2364 36.6403 99.0305 26.1719" stroke="black"/>
<path d="M32.5419 18.1447C16.8561 14.6502 11.2227 20.702 10.3668 24.1647C6.76323 32.7648 7.65409 32.4376 8.52478 37.095C9.64635 46.3113 16.6401 49.6812 19.9968 50.2142C31.2294 48.1143 34.0864 45.1701 40.0434 34.1485" stroke="black"/>
<path d="M45.2149 14.0528C44.6727 26.6194 43.2074 39.8336 42.5426 44.8698C55.6215 45.4342 59.474 44.5151 59.7654 43.985L59.7537 44.2558" stroke="black"/>
<path d="M99.9266 14.7746C101.201 27.4185 102.186 39.7431 102.52 44.325" stroke="black"/>
<path d="M114.684 12.9587C108.256 25.4558 103.232 29.9996 101.241 30.0692C113.187 29.6516 118.544 39.0846 120.142 42.6689" stroke="black"/>
<path d="M221.286 46.138C219.272 30.155 216.952 16.5999 216.044 11.8203" stroke="black"/>
<path d="M287.018 3.92129C283.594 4.95636 277.149 10.8031 278.761 25.9094C278.865 27.0276 279.792 29.6277 282.672 31.0831C285.697 34.2886 294.037 39.1954 303.194 33.1793C304.602 32.2286 307.146 27.3996 306.061 15.6894C305.931 13.3433 299.023 5.26908 287.018 3.92129Z" stroke="black"/>
<path d="M226.05 40.8801C222.167 25.2117 224.181 11.9763 224.77 7.40086C229.348 6.9764 237.296 27.8163 241.272 37.9279C244.285 41.594 244.462 33.0086 246.55 26.0338C246.678 14.3089 247.141 7.27927 245.857 5.44612" stroke="black"/>
<path d="M259.845 41.5653C258.274 34.8591 256.8 29.2262 255.476 24.5783M272.768 5.24226C268.386 6.7852 257.608 9.37575 249.551 7.39447C250.487 9.16854 252.636 14.6062 255.476 24.5783M255.476 24.5783C264.441 21.0191 272.29 19.6095 275.094 19.3495" stroke="black"/>
<path d="M187.351 39.4162C185.878 34.8269 184.545 30.5561 183.38 26.7456M183.38 26.7456C180.913 18.6789 179.195 12.6757 178.487 10.083C191.243 6.78671 196.332 6.87301 197.282 7.32819C198.204 13.3405 198.955 18.3517 199.216 20.1058C192.514 23.2861 185.866 25.8575 183.38 26.7456Z" stroke="black"/>
<path d="M204.755 34.2092C197.779 24.4742 192.067 23.4274 190.083 24.1208" stroke="black"/>
<path d="M163.686 9.66969C161.002 10.5307 156.003 15.2078 157.479 27.0282C157.576 27.9034 158.342 29.9286 160.632 31.028C163.059 33.4974 169.697 37.224 176.831 32.3749C177.927 31.6092 179.866 27.7864 178.851 18.621C178.717 16.7835 173.163 10.5529 163.686 9.66969Z" stroke="black"/>
<path d="M146.594 46.3386C143.74 40.7486 141.206 36.0868 139.02 32.2638M150.096 11.3813C146.556 13.7032 137.586 18.3485 130.025 18.3549C131.241 19.7201 134.33 24.0615 139.02 32.2638M139.02 32.2638C146.174 27.1576 152.81 24.1966 155.234 23.3544" stroke="black"/>
</g>
<defs>
<filter id="filter0_d" x="0.702026" y="1.71686" width="311.678" height="58.7222" filterUnits="userSpaceOnUse" color-interpolation-filters="sRGB">
<feFlood flood-opacity="0" result="BackgroundImageFix"/>
<feColorMatrix in="SourceAlpha" type="matrix" values="0 0 0 0 0 0 0 0 0 0 0 0 0 0 0 0 0 0 127 0"/>
<feOffset dy="4"/>
<feGaussianBlur stdDeviation="2"/>
<feColorMatrix type="matrix" values="0 0 0 0 0 0 0 0 0 0 0 0 0 0 0 0 0 0 0.25 0"/>
<feBlend mode="normal" in2="BackgroundImageFix" result="effect1_dropShadow"/>
<feBlend mode="normal" in="SourceGraphic" in2="effect1_dropShadow" result="shape"/>
</filter>
</defs>
</svg>
