<svg width="313" height="111" viewBox="0 0 313 111" fill="none" xmlns="http://www.w3.org/2000/svg">
<g filter="url(#filter0_d)">
<path d="M67.7905 94.3531C65.5339 78.9797 63.0297 65.9538 62.0597 61.3625" stroke="black"/>
<path d="M90.6716 62.6857C75.5213 61.232 70.6481 67.2307 70.1052 70.4118C67.3553 78.4694 68.1749 78.0828 69.3626 82.1468C71.1426 90.2528 78.0383 92.5179 81.2637 92.6372C91.7552 89.571 94.2364 86.6403 99.0305 76.1719" stroke="black"/>
<path d="M32.5419 68.1447C16.8561 64.6502 11.2227 70.702 10.3668 74.1647C6.76323 82.7648 7.65409 82.4376 8.52478 87.095C9.64635 96.3113 16.6401 99.6812 19.9968 100.214C31.2294 98.1143 34.0864 95.1701 40.0434 84.1485" stroke="black"/>
<path d="M45.2149 64.0528C44.6727 76.6194 43.2074 89.8336 42.5426 94.8698C55.6215 95.4342 59.474 94.5151 59.7654 93.985L59.7537 94.2558" stroke="black"/>
<path d="M99.9266 64.7746C101.201 77.4185 102.186 89.7431 102.52 94.325" stroke="black"/>
<path d="M114.684 62.9587C108.256 75.4558 103.232 79.9996 101.241 80.0692C113.187 79.6516 118.544 89.0846 120.142 92.6689" stroke="black"/>
<path d="M221.286 96.138C219.272 80.155 216.952 66.5999 216.044 61.8203" stroke="black"/>
<path d="M287.018 53.9213C283.594 54.9564 277.149 60.8031 278.761 75.9094C278.865 77.0276 279.792 79.6277 282.672 81.0831C285.697 84.2886 294.037 89.1954 303.194 83.1793C304.602 82.2286 307.146 77.3996 306.061 65.6894C305.931 63.3433 299.023 55.2691 287.018 53.9213Z" stroke="black"/>
<path d="M226.05 90.8801C222.167 75.2117 224.181 61.9763 224.77 57.4009C229.348 56.9764 237.296 77.8163 241.272 87.9279C244.285 91.594 244.462 83.0086 246.55 76.0338C246.678 64.3089 247.141 57.2793 245.857 55.4461" stroke="black"/>
<path d="M259.845 91.5653C258.274 84.8591 256.8 79.2262 255.476 74.5783M272.768 55.2423C268.386 56.7852 257.608 59.3758 249.551 57.3945C250.487 59.1685 252.636 64.6062 255.476 74.5783M255.476 74.5783C264.441 71.0191 272.29 69.6095 275.094 69.3495" stroke="black"/>
<path d="M187.351 89.4162C185.878 84.8269 184.545 80.5561 183.38 76.7456M183.38 76.7456C180.913 68.6789 179.195 62.6757 178.487 60.083C191.243 56.7867 196.332 56.873 197.282 57.3282C198.204 63.3405 198.955 68.3517 199.216 70.1058C192.514 73.2861 185.866 75.8575 183.38 76.7456Z" stroke="black"/>
<path d="M204.755 84.2092C197.779 74.4742 192.067 73.4274 190.083 74.1208" stroke="black"/>
<path d="M163.686 59.6697C161.002 60.5307 156.003 65.2078 157.479 77.0282C157.576 77.9034 158.342 79.9286 160.632 81.028C163.059 83.4974 169.697 87.224 176.831 82.3749C177.927 81.6092 179.866 77.7864 178.851 68.621C178.717 66.7835 173.163 60.5529 163.686 59.6697Z" stroke="black"/>
<path d="M146.594 96.3386C143.74 90.7486 141.206 86.0868 139.02 82.2638M150.096 61.3813C146.556 63.7032 137.586 68.3485 130.025 68.3549C131.241 69.7201 134.33 74.0615 139.02 82.2638M139.02 82.2638C146.174 77.1576 152.81 74.1966 155.234 73.3544" stroke="black"/>
</g>
<g filter="url(#filter1_d)">
<path d="M151.464 55.2705C144.695 17.8483 136.052 2.80395 133.868 3.31258M133.868 3.31258C131.212 8.12871 132.06 20.3967 132.377 23.6172M133.868 3.31258C152.056 5.1209 156.56 17.7304 155.943 27.4776" stroke="black"/>
</g>
<defs>
<filter id="filter0_d" x="0.702026" y="51.7169" width="311.678" height="58.7222" filterUnits="userSpaceOnUse" color-interpolation-filters="sRGB">
<feFlood flood-opacity="0" result="BackgroundImageFix"/>
<feColorMatrix in="SourceAlpha" type="matrix" values="0 0 0 0 0 0 0 0 0 0 0 0 0 0 0 0 0 0 127 0"/>
<feOffset dy="4"/>
<feGaussianBlur stdDeviation="2"/>
<feColorMatrix type="matrix" values="0 0 0 0 0 0 0 0 0 0 0 0 0 0 0 0 0 0 0.25 0"/>
<feBlend mode="normal" in2="BackgroundImageFix" result="effect1_dropShadow"/>
<feBlend mode="normal" in="SourceGraphic" in2="effect1_dropShadow" result="shape"/>
</filter>
<filter id="filter1_d" x="111.41" y="0.320679" width="63.7792" height="63.4134" filterUnits="userSpaceOnUse" color-interpolation-filters="sRGB">
<feFlood flood-opacity="0" result="BackgroundImageFix"/>
<feColorMatrix in="SourceAlpha" type="matrix" values="0 0 0 0 0 0 0 0 0 0 0 0 0 0 0 0 0 0 127 0"/>
<feOffset dy="4"/>
<feGaussianBlur stdDeviation="2"/>
<feColorMatrix type="matrix" values="0 0 0 0 0 0 0 0 0 0 0 0 0 0 0 0 0 0 0.25 0"/>
<feBlend mode="normal" in2="BackgroundImageFix" result="effect1_dropShadow"/>
<feBlend mode="normal" in="SourceGraphic" in2="effect1_dropShadow" result="shape"/>
</filter>
</defs>
</svg>
