<svg width="313" height="93" viewBox="0 0 313 93" fill="none" xmlns="http://www.w3.org/2000/svg">
<rect width="313" height="93" fill="#BDBDBD"/>
<g filter="url(#filter0_d)">
<path d="M185.105 15.7513C187.335 14.9004 194.722 14.4659 206.435 19.5347C206.104 25.5537 204.982 26.8819 204.463 26.7937C194.07 17.1719 178.541 22.501 172.075 26.3683C169.825 27.8272 170.812 31.6626 171.586 33.398C179.134 40.3254 192.462 39.6989 198.182 38.5197C204.111 37.6023 208.42 38.1987 209.833 38.6116C219.594 54.6096 212.573 65.046 207.843 68.2644C191.461 80.1083 185.997 82.9438 185.313 82.881C164.297 80.4658 158.329 75.2503 157.972 72.9444C152.914 61.1794 158.639 59.812 158.379 59.2208C161.48 58.3362 165.254 59.675 166.495 58.977C168.203 64.7842 168.206 67.2704 170.514 68.9802C171.859 71.1332 175.493 75.9285 188.538 73.9103C191.159 72.3241 197.884 67.6072 203.809 61.4287C207.456 58.8406 212.027 51.7585 201.133 44.1344L189.769 45.8927C189.769 45.8927 184.865 46.2466 174.522 42.1802C172.926 42.7644 168.127 40.741 161.699 27.9737C163.901 24.7659 171.665 17.8306 185.105 15.7513Z" fill="#8E2525"/>
<path d="M185.105 15.7513C187.335 14.9004 194.722 14.4659 206.435 19.5347C206.104 25.5537 204.982 26.8819 204.463 26.7937C194.07 17.1719 178.541 22.501 172.075 26.3683C169.825 27.8272 170.812 31.6626 171.586 33.398C179.134 40.3254 192.462 39.6989 198.182 38.5197C204.111 37.6023 208.42 38.1987 209.833 38.6116C219.594 54.6096 212.573 65.046 207.843 68.2644C191.461 80.1083 185.997 82.9438 185.313 82.881C164.297 80.4658 158.329 75.2503 157.972 72.9444C152.914 61.1794 158.639 59.812 158.379 59.2208C161.48 58.3362 165.254 59.675 166.495 58.977C168.203 64.7842 168.206 67.2704 170.514 68.9802C171.859 71.1332 175.493 75.9285 188.538 73.9103C191.159 72.3241 197.884 67.6072 203.809 61.4287C207.456 58.8406 212.027 51.7585 201.133 44.1344L189.769 45.8927C189.769 45.8927 184.865 46.2466 174.522 42.1802C172.926 42.7644 168.127 40.741 161.699 27.9737C163.901 24.7659 171.665 17.8306 185.105 15.7513Z" stroke="black"/>
</g>
<g filter="url(#filter1_d)">
<path d="M257.5 70.9151C254.862 71.5653 248.002 73.1581 241.671 74.3283C230.195 78.3283 221.775 73.7195 219 70.9151V25.3283C221.4 18.9283 224.066 15.6617 225.841 14.3283C238.5 13.3284 250.548 14.995 255 14.3283C256 17.3284 252.85 19.3961 252.059 21.6672C243.5 26.8283 237.914 23.3779 230 25.3283C229.505 26.7912 225.841 29.0788 225.841 33.3697C225.841 35.3201 221 48.3284 245 40.6837H253.048V46.535C248.699 48.7994 237.465 52.9283 227.326 51.3283C226.831 53.995 225.841 60.4754 225.841 65.0639C225.841 66.0391 227.273 67.9895 233 67.9895H238.5L251.069 65.0639C252.059 65.389 254.73 67.0143 257.5 70.9151Z" fill="#8E2525"/>
<path d="M257.5 70.9151C254.862 71.5653 248.002 73.1581 241.671 74.3283C230.195 78.3283 221.775 73.7195 219 70.9151V25.3283C221.4 18.9283 224.066 15.6617 225.841 14.3283C238.5 13.3284 250.548 14.995 255 14.3283C256 17.3284 252.85 19.3961 252.059 21.6672C243.5 26.8283 237.914 23.3779 230 25.3283C229.505 26.7912 225.841 29.0788 225.841 33.3697C225.841 35.3201 221 48.3284 245 40.6837H253.048V46.535C248.699 48.7994 237.465 52.9283 227.326 51.3283C226.831 53.995 225.841 60.4754 225.841 65.0639C225.841 66.0391 227.273 67.9895 233 67.9895H238.5L251.069 65.0639C252.059 65.389 254.73 67.0143 257.5 70.9151Z" stroke="black"/>
</g>
<g filter="url(#filter2_d)">
<path d="M128.771 16C123.04 17.1584 111.664 25.6316 112.008 50.2568C112.008 52.0772 113.125 56.4131 117.595 59.1933C122.037 64.8201 134.874 73.9883 150.692 65.6475C153.127 64.3236 157.999 56.9095 157.999 37.8449C158.142 34.0386 148.113 19.9718 128.771 16Z" fill="#8E2525"/>
<path d="M128.771 16C123.04 17.1584 111.664 25.6316 112.008 50.2568C112.008 52.0772 113.125 56.4131 117.595 59.1933C122.037 64.8201 134.874 73.9883 150.692 65.6475C153.127 64.3236 157.999 56.9095 157.999 37.8449C158.142 34.0386 148.113 19.9718 128.771 16Z" stroke="black"/>
</g>
<g filter="url(#filter3_d)">
<path d="M118 50.5C117 45 122 25 135.5 25.5C141.5 25.5 147 29 153 39C153.333 43.6667 157.1 54.4 143.5 64L143.407 64.0145C138.022 64.8565 125.556 66.8057 118 50.5Z" fill="#C4C4C4"/>
<path d="M118 50.5C117 45 122 25 135.5 25.5C141.5 25.5 147 29 153 39C153.333 43.6667 157.1 54.4 143.5 64L143.407 64.0145C138.022 64.8565 125.556 66.8057 118 50.5Z" stroke="black"/>
</g>
<g filter="url(#filter4_d)">
<path d="M18.6361 27.3107C21.6361 21.144 35.1361 11.8107 65.1361 23.8107C63.8272 26.6107 60.8333 29.1036 59.5 30C36.3 20 25.1667 30.5 22.5 37C14.9 55.4 21 66 25 69C40 78.7302 63 58 65.1361 50.8107C72.336 50.8107 74.136 54.4774 74.136 56.3107C58.136 74.8107 51.336 79.3107 28.136 79.3107C21.636 77.1441 8.936 68.4107 10.1361 50.8107C10.136 41.8107 8.23609 42.1107 18.6361 27.3107Z" fill="#8E2525"/>
<path d="M18.6361 27.3107C21.6361 21.144 35.1361 11.8107 65.1361 23.8107C63.8272 26.6107 60.8333 29.1036 59.5 30C36.3 20 25.1667 30.5 22.5 37C14.9 55.4 21 66 25 69C40 78.7302 63 58 65.1361 50.8107C72.336 50.8107 74.136 54.4774 74.136 56.3107C58.136 74.8107 51.336 79.3107 28.136 79.3107C21.636 77.1441 8.936 68.4107 10.1361 50.8107C10.136 41.8107 8.23609 42.1107 18.6361 27.3107Z" stroke="black"/>
</g>
<g filter="url(#filter5_d)">
<path d="M79 76.3252C79.8333 66.9918 81.5 42.5252 81.5 19.3252C85.5 16.9252 88.1667 18.3252 89 19.3252C89 38.9251 87.3333 60.8251 86.5 69.3251C94.5 69.3251 108.5 66.3251 114.5 64.8251C116.5 68.4251 113 72.3252 111 73.8252V73.3252C110.5 74.3252 103.4 76.3252 79 76.3252Z" fill="#8E2525"/>
<path d="M79 76.3252C79.8333 66.9918 81.5 42.5252 81.5 19.3252C85.5 16.9252 88.1667 18.3252 89 19.3252C89 38.9251 87.3333 60.8251 86.5 69.3251C94.5 69.3251 108.5 66.3251 114.5 64.8251C116.5 68.4251 113 72.3252 111 73.8252V73.3252C110.5 74.3252 103.4 76.3252 79 76.3252Z" stroke="black"/>
</g>
<g filter="url(#filter6_d)">
<path d="M265.5 72.607C263.333 65.607 262 44.107 262 16.107C294.5 2.60689 316.5 58.1067 300.5 65.6068C290.5 73.1067 276.3 72.607 265.5 72.607Z" fill="#8E2525"/>
<path d="M265.5 72.607C263.333 65.607 262 44.107 262 16.107C294.5 2.60689 316.5 58.1067 300.5 65.6068C290.5 73.1067 276.3 72.607 265.5 72.607Z" stroke="black"/>
</g>
<path d="M272 67.5C273.167 62.8333 273.5 49 269 23C275.667 24.5 283 21.5 294 32.5C295.833 33.1667 302 52.5 299 60C293 66.5 283.2 64.7 272 67.5Z" fill="#C4C4C4" stroke="black"/>
<defs>
<filter id="filter0_d" x="144.43" y="11.4294" width="78.8263" height="84.0765" filterUnits="userSpaceOnUse" color-interpolation-filters="sRGB">
<feFlood flood-opacity="0" result="BackgroundImageFix"/>
<feColorMatrix in="SourceAlpha" type="matrix" values="0 0 0 0 0 0 0 0 0 0 0 0 0 0 0 0 0 0 127 0"/>
<feOffset dy="4"/>
<feGaussianBlur stdDeviation="2"/>
<feColorMatrix type="matrix" values="0 0 0 0 0 0 0 0 0 0 0 0 0 0 0 0 0 0 0.25 0"/>
<feBlend mode="normal" in2="BackgroundImageFix" result="effect1_dropShadow"/>
<feBlend mode="normal" in="SourceGraphic" in2="effect1_dropShadow" result="shape"/>
</filter>
<filter id="filter1_d" x="214.5" y="13.5" width="47.8331" height="70.8924" filterUnits="userSpaceOnUse" color-interpolation-filters="sRGB">
<feFlood flood-opacity="0" result="BackgroundImageFix"/>
<feColorMatrix in="SourceAlpha" type="matrix" values="0 0 0 0 0 0 0 0 0 0 0 0 0 0 0 0 0 0 127 0"/>
<feOffset dy="4"/>
<feGaussianBlur stdDeviation="2"/>
<feColorMatrix type="matrix" values="0 0 0 0 0 0 0 0 0 0 0 0 0 0 0 0 0 0 0.25 0"/>
<feBlend mode="normal" in2="BackgroundImageFix" result="effect1_dropShadow"/>
<feBlend mode="normal" in="SourceGraphic" in2="effect1_dropShadow" result="shape"/>
</filter>
<filter id="filter2_d" x="107.5" y="15.4897" width="55.0001" height="62.0129" filterUnits="userSpaceOnUse" color-interpolation-filters="sRGB">
<feFlood flood-opacity="0" result="BackgroundImageFix"/>
<feColorMatrix in="SourceAlpha" type="matrix" values="0 0 0 0 0 0 0 0 0 0 0 0 0 0 0 0 0 0 127 0"/>
<feOffset dy="4"/>
<feGaussianBlur stdDeviation="2"/>
<feColorMatrix type="matrix" values="0 0 0 0 0 0 0 0 0 0 0 0 0 0 0 0 0 0 0.25 0"/>
<feBlend mode="normal" in2="BackgroundImageFix" result="effect1_dropShadow"/>
<feBlend mode="normal" in="SourceGraphic" in2="effect1_dropShadow" result="shape"/>
</filter>
<filter id="filter3_d" x="113.376" y="24.9907" width="44.8484" height="48.0669" filterUnits="userSpaceOnUse" color-interpolation-filters="sRGB">
<feFlood flood-opacity="0" result="BackgroundImageFix"/>
<feColorMatrix in="SourceAlpha" type="matrix" values="0 0 0 0 0 0 0 0 0 0 0 0 0 0 0 0 0 0 127 0"/>
<feOffset dy="4"/>
<feGaussianBlur stdDeviation="2"/>
<feColorMatrix type="matrix" values="0 0 0 0 0 0 0 0 0 0 0 0 0 0 0 0 0 0 0.25 0"/>
<feBlend mode="normal" in2="BackgroundImageFix" result="effect1_dropShadow"/>
<feBlend mode="normal" in="SourceGraphic" in2="effect1_dropShadow" result="shape"/>
</filter>
<filter id="filter4_d" x="5.5" y="17.5029" width="73.136" height="70.3079" filterUnits="userSpaceOnUse" color-interpolation-filters="sRGB">
<feFlood flood-opacity="0" result="BackgroundImageFix"/>
<feColorMatrix in="SourceAlpha" type="matrix" values="0 0 0 0 0 0 0 0 0 0 0 0 0 0 0 0 0 0 127 0"/>
<feOffset dy="4"/>
<feGaussianBlur stdDeviation="2"/>
<feColorMatrix type="matrix" values="0 0 0 0 0 0 0 0 0 0 0 0 0 0 0 0 0 0 0.25 0"/>
<feBlend mode="normal" in2="BackgroundImageFix" result="effect1_dropShadow"/>
<feBlend mode="normal" in="SourceGraphic" in2="effect1_dropShadow" result="shape"/>
</filter>
<filter id="filter5_d" x="74.4534" y="17.5004" width="45.1441" height="67.3247" filterUnits="userSpaceOnUse" color-interpolation-filters="sRGB">
<feFlood flood-opacity="0" result="BackgroundImageFix"/>
<feColorMatrix in="SourceAlpha" type="matrix" values="0 0 0 0 0 0 0 0 0 0 0 0 0 0 0 0 0 0 127 0"/>
<feOffset dy="4"/>
<feGaussianBlur stdDeviation="2"/>
<feColorMatrix type="matrix" values="0 0 0 0 0 0 0 0 0 0 0 0 0 0 0 0 0 0 0.25 0"/>
<feBlend mode="normal" in2="BackgroundImageFix" result="effect1_dropShadow"/>
<feBlend mode="normal" in="SourceGraphic" in2="effect1_dropShadow" result="shape"/>
</filter>
<filter id="filter6_d" x="257.5" y="13.4999" width="52.8438" height="67.614" filterUnits="userSpaceOnUse" color-interpolation-filters="sRGB">
<feFlood flood-opacity="0" result="BackgroundImageFix"/>
<feColorMatrix in="SourceAlpha" type="matrix" values="0 0 0 0 0 0 0 0 0 0 0 0 0 0 0 0 0 0 127 0"/>
<feOffset dy="4"/>
<feGaussianBlur stdDeviation="2"/>
<feColorMatrix type="matrix" values="0 0 0 0 0 0 0 0 0 0 0 0 0 0 0 0 0 0 0.25 0"/>
<feBlend mode="normal" in2="BackgroundImageFix" result="effect1_dropShadow"/>
<feBlend mode="normal" in="SourceGraphic" in2="effect1_dropShadow" result="shape"/>
</filter>
</defs>
</svg>
