<svg width="783" height="100" viewBox="0 0 783 100" fill="none" xmlns="http://www.w3.org/2000/svg">
<rect width="783" height="100" fill="none"/>
<g filter="url(#filter0_d)">
<path d="M339.849 83.9035C339.703 75.577 339.796 67.1797 340.012 59.3954M340.012 59.3954C340.409 45.0914 341.224 32.8572 341.746 26.9351C358.936 27.5074 371.474 30.593 375.594 32.0643C375.261 42.0588 372.913 52.4864 371.78 56.4509C367.334 57.644 361.404 58.3827 355.692 58.8223M340.012 59.3954C343.514 59.425 349.474 59.3009 355.692 58.8223M355.692 58.8223C368.256 66.1201 373.019 79.3381 373.83 85.0349" stroke="black"/>
<path d="M68.4592 31.4019C21.95 15.4796 14.1457 47.821 16.0571 65.982C32.3443 101.834 63.9727 78.6441 77.7511 62.5679" stroke="black"/>
<path d="M78.8811 29.0734C77.2855 61.5725 89.562 84.2363 83.6776 77.8123C109.651 84.3239 120.42 73.2227 120.42 73.2227L115.372 22.3994" stroke="black"/>
<path d="M170.688 31.1312C152.153 18.6508 134.374 26.811 127.801 32.4512C130.329 51.4023 151.703 54.5414 162.074 53.742C177.343 64.4935 156.509 75.5388 144.183 79.7174" stroke="black"/>
<path d="M144.164 79.8525C127.223 78.9046 121.669 64.6634 121.009 57.6613" stroke="black"/>
<path d="M162.164 21.5128C180.761 21.2409 207.805 25.2601 219.003 27.3037" stroke="black"/>
<path d="M181.337 80.071C183.647 61.4353 188.097 33.5146 190.034 21.8837" stroke="black"/>
<path d="M230.944 31.2503C208.744 33.4401 199.806 47.1638 198.111 53.7518C197.516 71.6315 207.355 78.8748 212.348 80.2615" stroke="black"/>
<path d="M210.888 79.806C231.966 84.7386 244.317 72.6473 247.858 65.9851C253.395 41.4357 238.153 32.5751 229.839 31.2135" stroke="black"/>
<path d="M255.233 81.0862C257.95 40.5701 262.271 23.7186 265.515 28.9595C268.915 50.0603 277.695 56.7401 277.695 56.7401C289.092 42.9758 296.052 30.1663 298.107 25.4821C293.114 65.9223 289.071 80.1217 287.673 82.1663" stroke="black"/>
<path d="M334.085 26.7455C306.527 25.0275 300.904 31.644 300.904 31.644C300.225 52.0327 300.039 57.6296 300.039 57.6296M300.039 57.6296C314.031 58.0955 319.661 54.2808 326.157 54.4971L300.039 57.6296ZM300.039 57.6296C299.679 68.4237 299.356 78.1183 299.24 81.6164C313.126 85.2805 329.745 81.965 336.319 79.8493" stroke="black"/>
<path d="M516.024 40.2931C509.825 22.4904 492.485 24.5713 485.041 41.3296C477.597 58.0878 482.931 82.9234 482.462 68.9312C487.928 88.7595 500.454 83.3377 509.366 80.5382C525.076 71.608 532.245 61.5961 531.55 55.7827C512.64 52.8133 500.418 57.3245 496.67 59.9512" stroke="black"/>
<path d="M403.462 88.1396C402.761 79.8413 402.294 71.4565 401.99 63.6751M401.99 63.6751C401.433 49.3765 401.431 37.1151 401.556 31.1715C418.747 30.5964 431.462 32.8392 435.671 34.0325C436.005 44.0269 434.357 54.5879 433.492 58.6191C429.135 60.1061 423.267 61.2384 417.598 62.0578M401.99 63.6751C405.487 63.4712 411.425 62.95 417.598 62.0578M417.598 62.0578C430.621 68.5017 436.254 81.3728 437.443 87.0029" stroke="black"/>
<path d="M645.924 75.4841C645.615 67.162 645.544 58.7645 645.608 50.9775M645.608 50.9775C645.725 36.6685 646.301 24.4207 646.706 18.4895C663.904 18.7253 676.5 21.5649 680.648 22.9553C680.511 32.9543 678.367 43.4259 677.312 47.4118C672.89 48.6918 666.975 49.5463 661.274 50.0976M645.608 50.9775C649.11 50.9386 655.066 50.6979 661.274 50.0976M661.274 50.0976C673.978 57.1481 678.999 70.2704 679.921 75.9503" stroke="black"/>
<path d="M475.854 28.7515C448.243 28.8747 443.073 35.8514 443.073 35.8514C443.755 56.24 443.943 61.8369 443.943 61.8369M443.943 61.8369C457.935 61.3688 463.298 57.1872 469.794 56.9699L443.943 61.8369ZM443.943 61.8369C444.304 72.6308 444.628 82.3254 444.745 85.8235C458.844 88.5536 475.206 84.1375 481.624 81.5881" stroke="black"/>
<path d="M541.722 83.5145C538.722 59.088 535.181 34.8255 533.786 25.7476" stroke="black"/>
<path d="M593.187 27.446C572.015 17.959 555.27 29.4556 549.544 36.3898C555.486 55.3311 577.909 54.7582 588.378 52.1041C605.904 60.4004 586.544 75.3897 574.673 81.8472" stroke="black"/>
<path d="M574.677 81.9888C557.178 84.0185 548.973 70.4319 547.059 63.3848" stroke="black"/>
<path d="M586.641 20.5342C603.876 19.0666 629.223 21.3375 639.742 22.6564" stroke="black"/>
<path d="M608.195 77.7334C609.14 58.9891 611.472 30.8421 612.519 19.1116" stroke="black"/>
<path d="M685.508 74.7024C685.222 66.1583 685.846 57.1174 686.884 48.6418M718.248 80.6111C719.095 74.9385 723.75 62.9441 721.098 47.4974M721.098 47.4974C719.44 37.844 712.637 30.2706 705.594 21.0009L693.096 16.4161C691.339 22.6619 688.567 34.9097 686.884 48.6418M721.098 47.4974C706.726 47.9781 692.301 48.4607 686.884 48.6418" stroke="black"/>
<path d="M734.041 77.4761C731.786 69.4594 729.744 61.3137 727.977 53.7296M727.977 53.7296C724.73 39.7933 722.412 27.753 721.413 21.8926C738.185 18.0819 751.096 17.8834 755.454 18.2604C757.67 28.0119 758.046 38.6941 757.957 42.8162C753.959 45.0992 748.411 47.3191 742.998 49.1943M727.977 53.7296C731.372 52.869 737.105 51.236 742.998 49.1943M742.998 49.1943C757.003 53.0632 764.966 64.639 767.196 69.9433" stroke="black"/>
</g>
<defs>
<filter id="filter0_d" x="10.4839" y="13.7615" width="761.219" height="82.5038" filterUnits="userSpaceOnUse" color-interpolation-filters="sRGB">
<feFlood flood-opacity="0" result="BackgroundImageFix"/>
<feColorMatrix in="SourceAlpha" type="matrix" values="0 0 0 0 0 0 0 0 0 0 0 0 0 0 0 0 0 0 127 0"/>
<feOffset dy="4"/>
<feGaussianBlur stdDeviation="2"/>
<feColorMatrix type="matrix" values="0 0 0 0 0 0 0 0 0 0 0 0 0 0 0 0 0 0 0.25 0"/>
<feBlend mode="normal" in2="BackgroundImageFix" result="effect1_dropShadow"/>
<feBlend mode="normal" in="SourceGraphic" in2="effect1_dropShadow" result="shape"/>
</filter>
</defs>
</svg>
