<svg width="106" height="106" viewBox="0 0 106 106" fill="none" xmlns="http://www.w3.org/2000/svg">
<rect width="106" height="106" fill="black"/>
<g filter="url(#filter0_d)">
<path d="M36.8603 21.779C35.3292 27.3146 34.8816 44.8164 45.3403 70.539H58.0602C65.4802 56.759 77.3522 25.8777 65.4802 12.5924C58.7669 8.58792 43.6443 4.81903 36.8603 21.779Z" fill="#DE0000"/>
<path d="M36.8603 21.779C35.3292 27.3146 34.8816 44.8164 45.3403 70.539H58.0602C65.4802 56.759 77.3522 25.8777 65.4802 12.5924C58.7669 8.58792 43.6443 4.81903 36.8603 21.779Z" stroke="black"/>
</g>
<g filter="url(#filter1_d)">
<circle cx="51.7002" cy="83.2591" r="9.89333" fill="#DE0000"/>
<circle cx="51.7002" cy="83.2591" r="9.39333" stroke="black"/>
</g>
<defs>
<filter id="filter0_d" x="31.54" y="8.68658" width="43.4767" height="70.3524" filterUnits="userSpaceOnUse" color-interpolation-filters="sRGB">
<feFlood flood-opacity="0" result="BackgroundImageFix"/>
<feColorMatrix in="SourceAlpha" type="matrix" values="0 0 0 0 0 0 0 0 0 0 0 0 0 0 0 0 0 0 127 0"/>
<feOffset dy="4"/>
<feGaussianBlur stdDeviation="2"/>
<feColorMatrix type="matrix" values="0 0 0 0 0 0 0 0 0 0 0 0 0 0 0 0 0 0 0.25 0"/>
<feBlend mode="normal" in2="BackgroundImageFix" result="effect1_dropShadow"/>
<feBlend mode="normal" in="SourceGraphic" in2="effect1_dropShadow" result="shape"/>
</filter>
<filter id="filter1_d" x="37.8069" y="73.3657" width="27.7867" height="27.7867" filterUnits="userSpaceOnUse" color-interpolation-filters="sRGB">
<feFlood flood-opacity="0" result="BackgroundImageFix"/>
<feColorMatrix in="SourceAlpha" type="matrix" values="0 0 0 0 0 0 0 0 0 0 0 0 0 0 0 0 0 0 127 0"/>
<feOffset dy="4"/>
<feGaussianBlur stdDeviation="2"/>
<feColorMatrix type="matrix" values="0 0 0 0 0 0 0 0 0 0 0 0 0 0 0 0 0 0 0.25 0"/>
<feBlend mode="normal" in2="BackgroundImageFix" result="effect1_dropShadow"/>
<feBlend mode="normal" in="SourceGraphic" in2="effect1_dropShadow" result="shape"/>
</filter>
</defs>
</svg>
