<svg width="779" height="88" viewBox="0 0 779 88" fill="none" xmlns="http://www.w3.org/2000/svg">
<g filter="url(#filter0_d)">
<path d="M5 70C7 45.2 9.16667 27.6666 10 22C13.6 12.8 15.1667 12.8333 15.5 14C20 37 28.5 42.5 28.5 42.5C41 29.5 47.3333 16.5 50 12C47.2 38.4 42.5 61.6666 40.5 70" stroke="black"/>
<path d="M57.1793 72.6679C52.6104 41.8017 54.7921 18.8369 56.4541 11.2128C65.0997 12.4679 70.0821 13.7464 71.4926 14.2288C86.8773 27.2886 88.2421 33.6633 90.5311 39.4088C92.3087 43.6088 94.0459 54.2387 94.6923 59.0286C93.4372 67.6741 92.864 72.8977 92.7342 74.4288" stroke="black"/>
<path d="M90.531 39.409C75.1781 42.288 60.1084 44.5235 54.4926 45.2813" stroke="black"/>
<path d="M176 7C150 7 141.167 10.3333 140 12C140 34.4 139.333 57 139 65.5C146.2 66.7 157.667 67.3333 162.5 67.5" stroke="black"/>
<path d="M162 67.5C168.4 66.3 175.333 64.6667 178 64" stroke="black"/>
<path d="M139 40C151.5 38.5 162.833 38 166.5 37.5" stroke="black"/>
<path d="M97 8.5C98.6 32.9 99.6667 56.6667 100 65.5" stroke="black"/>
<path d="M125.5 6C112.3 29.6 102.333 38 98.5 38C121.5 38 131.167 56.5 134 63.5" stroke="black"/>
<path d="M221.022 67C220.622 35.8 225.855 13.3333 228.522 6C236.922 8.4 241.688 10.3333 243.022 11C256.522 26 257.022 32.5 258.522 38.5C259.722 42.9 260.022 53.6667 260.022 58.5C257.622 66.9 256.355 72 256.022 73.5" stroke="black"/>
<path d="M258.522 38.5C242.922 39.3 227.688 39.5 222.022 39.5" stroke="black"/>
<path d="M309.143 68.8448C308.803 59.2949 308.558 50.4279 308.384 42.5294M308.384 42.5294C308.016 25.8083 307.968 13.4281 308.012 8.09967C334.129 8.67377 343.793 11.5767 345.361 12.9564C343.885 24.9256 342.622 34.8926 342.175 38.3799C327.675 40.8425 313.606 42.1723 308.384 42.5294Z" stroke="black"/>
<path d="M345.156 68.2733C337.082 45.9428 326.746 40.8716 322.587 41.1274" stroke="black"/>
<path d="M390.602 5.84389C364.826 2.44007 355.632 4.5883 354.257 6.08788C351.325 28.2951 347.705 50.6133 346.262 58.9965C353.243 61.1288 364.528 63.2578 369.298 64.0558" stroke="black"/>
<path d="M368.802 63.9904C375.304 63.6386 382.392 62.927 385.123 62.6152" stroke="black"/>
<path d="M349.6 33.716C362.189 33.8654 373.49 34.8534 377.191 34.8377" stroke="black"/>
<path d="M429.54 9.86553C417.309 6.21922 410.026 7.52537 407.913 8.63423C394.813 12.2903 387.925 20.0962 386.118 23.5421C394.012 35.4586 399.017 36.8995 400.533 36.1304C411.285 38.9435 416.112 38.0115 416.112 38.0115L427.189 34.9199C438.908 41.2005 435.208 48.774 431.893 51.7757C426.741 58.6123 420.623 64.0923 418.207 65.9777C405.493 69.5262 399.134 66.4562 397.543 64.4776C389.013 57.722 386.627 52.6433 386.5 50.9484" stroke="black"/>
<path d="M478 3C452 3 443.167 6.33333 442 8C442 30.4 441.333 53 441 61.5C448.2 62.7 459.667 63.3333 464.5 63.5" stroke="black"/>
<path d="M464 63.5C470.4 62.3 477.333 60.6667 480 60" stroke="black"/>
<path d="M441 36C453.5 34.5 464.833 34 468.5 33.5" stroke="black"/>
<path d="M486.143 66.8448C485.803 57.2949 485.558 48.4279 485.384 40.5294M485.384 40.5294C485.016 23.8083 484.968 11.4281 485.012 6.09967C511.129 6.67377 520.793 9.57672 522.361 10.9564C520.885 22.9256 519.622 32.8926 519.175 36.3799C504.675 38.8425 490.606 40.1723 485.384 40.5294Z" stroke="black"/>
<path d="M522.156 66.2733C514.082 43.9428 503.746 38.8716 499.587 39.1274" stroke="black"/>
<path d="M525 4.5C541 43.7 548 59.8333 550.5 61C555.7 61 562.333 49.8333 563 46C568.5 35.5 567 7.33333 566.5 3" stroke="black"/>
<path d="M567.38 60.6575C573.509 30.0629 583.322 9.18606 587.463 2.57198C595.175 6.67453 599.433 9.56137 600.597 10.492C610.664 27.9821 609.795 34.4431 610.008 40.6241C610.262 45.1777 608.305 55.7693 607.295 60.4959C603.192 68.2088 600.888 72.9315 600.248 74.3287" stroke="black"/>
<path d="M610.008 40.6241C594.585 38.1461 579.646 35.1581 574.105 33.9738" stroke="black"/>
<path d="M660.449 5.97733C623.137 7.36457 608.018 9.77062 605.123 10.8002" stroke="black"/>
<path d="M635.309 67.5259C633.511 36.6719 632.218 13.9834 631.796 6.49592" stroke="black"/>
<path d="M671.473 69.4816C670.533 40.9174 668.654 16.5921 667.832 8" stroke="black"/>
<path d="M689.163 13.5963C683.057 16.2321 672.359 27.4718 678.414 51.3443C678.833 53.1157 681.075 57.0408 686.686 58.5697C692.921 62.876 709.308 68.4186 724.975 56.1385C727.379 54.2091 731.088 45.7122 726.696 27.1602C725.979 23.4185 711.586 12.37 689.163 13.5963Z" stroke="black"/>
<path d="M735.456 65.5C731.456 39.5 736.789 18.3333 738.456 11C746.056 11 755.956 46 760.956 63C765.356 69.4 766.956 55.5 771.456 44.5C773.456 25.5 775.289 14.1667 773.456 11" stroke="black"/>
</g>
<defs>
<filter id="filter0_d" x="0.501709" y="0.300293" width="778.209" height="86.9865" filterUnits="userSpaceOnUse" color-interpolation-filters="sRGB">
<feFlood flood-opacity="0" result="BackgroundImageFix"/>
<feColorMatrix in="SourceAlpha" type="matrix" values="0 0 0 0 0 0 0 0 0 0 0 0 0 0 0 0 0 0 127 0"/>
<feOffset dy="4"/>
<feGaussianBlur stdDeviation="2"/>
<feColorMatrix type="matrix" values="0 0 0 0 0 0 0 0 0 0 0 0 0 0 0 0 0 0 0.25 0"/>
<feBlend mode="normal" in2="BackgroundImageFix" result="effect1_dropShadow"/>
<feBlend mode="normal" in="SourceGraphic" in2="effect1_dropShadow" result="shape"/>
</filter>
</defs>
</svg>
