<svg width="804" height="99" viewBox="0 0 804 99" fill="none" xmlns="http://www.w3.org/2000/svg">
<g filter="url(#filter0_d)">
<path d="M5.9993 89.9818C7.92495 61.3086 10.1394 41.0268 11.0059 34.47C14.9591 23.7947 16.735 23.812 17.1288 25.1551C22.5445 51.6616 32.2528 57.9 32.2528 57.9C46.2398 42.7152 53.2384 27.6137 56.1985 22.3798C53.3883 52.9119 48.3818 79.8504 46.2298 89.5031" stroke="black"/>
<path d="M68.4263 81.0813C63.3125 50.3006 65.088 27.3009 66.615 19.6486C75.2814 20.7507 80.2856 21.9409 81.7044 22.3983C97.3176 35.1841 98.7948 41.5338 101.185 47.2379C103.037 51.4058 104.961 62.0033 105.692 66.781C104.59 75.4474 104.109 80.6803 104.007 82.2134" stroke="black"/>
<path d="M101.185 47.2379C85.8853 50.3879 70.8575 52.8893 65.256 53.7463" stroke="black"/>
<path d="M114.132 76.8833C107.496 52.9781 110.139 32.5623 110.885 25.5092C118.002 24.6647 131.163 56.3429 137.735 71.7082C142.567 77.213 142.521 64.0175 145.513 53.2156C145.274 35.1994 145.732 24.3817 143.663 21.6197" stroke="black"/>
<path d="M154.059 65.1715C159.035 34.3683 168.057 13.1377 171.946 6.37275C179.808 10.1827 184.171 12.9077 185.369 13.7939C196.086 30.8936 195.46 37.3827 195.905 43.5513C196.33 48.0922 194.772 58.7498 193.94 63.511C190.13 71.3726 188.005 76.1784 187.418 77.5987" stroke="black"/>
<path d="M195.905 43.5513C180.4 41.6543 165.36 39.2293 159.777 38.254" stroke="black"/>
<path d="M236.252 22.4306C230.105 10.1029 223.588 8.74696 221.098 9.60998C207.923 11.7669 202.772 24.329 201.844 30.3405C199.549 39.1684 199.411 50.0375 199.629 54.3686C204.919 61.9061 207.258 65.1119 207.766 65.7726C217.846 72.4531 230.607 66.3342 235.728 62.4396C246.027 53.9165 250.562 48.4288 251.542 46.7504C254.271 40.7175 253.616 38.8918 252.947 38.7331C221.437 38.1079 215.652 42.1771 217.003 43.6611" stroke="black"/>
<path d="M303.15 11.9584C277.751 6.40263 268.409 7.77145 266.913 9.15032C262.127 31.033 256.646 52.9685 254.504 61.201C261.282 63.9118 272.348 66.9807 277.034 68.1763" stroke="black"/>
<path d="M276.546 68.0694C283.054 68.2647 290.177 68.1506 292.924 68.0692" stroke="black"/>
<path d="M259.953 36.2899C272.485 37.4956 283.663 39.4289 287.352 39.7239" stroke="black"/>
<path d="M303.194 77.6362C303.045 52.7561 303.69 35.1012 304.031 29.3837C306.823 19.9072 308.386 19.8051 308.819 20.9387C315.289 43.4642 324.232 48.2096 324.232 48.2096C335.562 34.1787 340.749 20.6803 343.018 15.9669C342.508 42.51 339.835 66.0957 338.562 74.5706" stroke="black"/>
<path d="M385.299 1.82579C359.773 6.76882 351.735 11.7207 350.906 13.5788C355.165 35.5703 358.807 57.8848 360.096 66.2932C367.393 66.1024 378.771 64.5442 383.548 63.7889" stroke="black"/>
<path d="M383.057 63.884C389.112 61.4892 395.608 58.5675 398.099 57.406" stroke="black"/>
<path d="M355.248 41.2582C367.235 37.4091 378.266 34.7636 381.771 33.5756" stroke="black"/>
<path d="M406.195 65.7187C401.886 39.7681 406.967 18.5395 408.546 11.1869C416.146 11.0964 426.461 45.9762 431.663 62.9155C436.139 69.2627 437.574 55.3446 441.942 44.2919C443.716 25.2694 445.415 13.9151 443.544 10.7704" stroke="black"/>
<path d="M492.549 7.18714C455.313 4.42996 440.021 5.14529 437.029 5.84761" stroke="black"/>
<path d="M460.741 65.5697C462.374 34.7064 463.604 12.0145 464.015 4.52638" stroke="black"/>
<path d="M578.001 10.8247C548.461 -2.26624 534.628 6.56626 531.404 12.6189C520.469 27.028 522.378 26.7978 522.049 35.7917C520.205 53.336 532.576 62.5287 538.992 64.932C562.177 65.7819 569.137 61.5341 585.804 43.6327" stroke="black"/>
<path d="M609.86 5.61489C604.294 28.1371 596.805 51.4891 593.756 60.3498C617.444 66.2045 624.816 65.9666 625.541 65.1158L625.421 65.6012" stroke="black"/>
<path d="M640.145 71.8131C640.252 43.2336 639.266 18.8558 638.759 10.2394" stroke="black"/>
<path d="M692.001 9.18922C666.019 8.23672 657.069 11.2442 655.842 12.867C655.022 35.252 653.527 57.8124 652.883 66.2945C660.034 67.7574 671.47 68.8104 676.294 69.154" stroke="black"/>
<path d="M675.794 69.1357C682.234 68.171 689.222 66.7927 691.912 66.2242" stroke="black"/>
<path d="M653.817 40.8116C666.364 39.7705 677.708 39.686 681.39 39.3207" stroke="black"/>
<path d="M699.217 73.8166C700.106 45.0005 710.085 23.2589 713.348 15.6901C721.537 17.2099 725.206 56.9038 727.194 76.222C730.656 83.9982 735.159 69.3402 742.208 58.3871C748.162 38.3136 752.404 26.468 751.062 22.6891" stroke="black"/>
<path d="M799.087 20.1424C762.908 10.9133 747.726 8.9421 744.658 9.11015" stroke="black"/>
<path d="M757.556 72.0597C764.563 41.9582 769.744 19.8314 771.459 12.5307" stroke="black"/>
</g>
<defs>
<filter id="filter0_d" x="0.700806" y="1.33496" width="802.919" height="96.7674" filterUnits="userSpaceOnUse" color-interpolation-filters="sRGB">
<feFlood flood-opacity="0" result="BackgroundImageFix"/>
<feColorMatrix in="SourceAlpha" type="matrix" values="0 0 0 0 0 0 0 0 0 0 0 0 0 0 0 0 0 0 127 0"/>
<feOffset dy="4"/>
<feGaussianBlur stdDeviation="2"/>
<feColorMatrix type="matrix" values="0 0 0 0 0 0 0 0 0 0 0 0 0 0 0 0 0 0 0.25 0"/>
<feBlend mode="normal" in2="BackgroundImageFix" result="effect1_dropShadow"/>
<feBlend mode="normal" in="SourceGraphic" in2="effect1_dropShadow" result="shape"/>
</filter>
</defs>
</svg>
