<svg width="210" height="144" viewBox="0 0 210 144" fill="none" xmlns="http://www.w3.org/2000/svg">
<path d="M86.5674 57.4467L91.6596 69.5141C78.0805 79.8117 74.6856 72.7321 71.2908 90.431C61.9551 90.431 67.896 73.5366 71.2908 69.5141C81.4752 68.2269 81.7581 57.7149 80.6265 52.6197H67.0473C62.9735 69.3532 61.9551 90.1628 61.9551 98.4761M74.6856 33.3118C74.5626 29.9193 97.1883 36.2398 100.995 39.7477L91.6596 52.6197L74.6856 33.3118ZM91.6596 52.6197L80.6265 45.3792L61.9551 39.7477L91.6596 52.6197ZM91.6596 52.6197L96.7518 65.4917C121.194 44.8964 106.936 31.1664 96.7518 26.8757C145.637 41.6785 80.9094 93.1127 42.4351 116.979L91.6596 52.6197Z" stroke="black"/>
<path d="M116.197 94.328L112.421 106.822C95.0331 107.073 96.9266 99.5066 82.803 111.521C75.4252 106.099 91.0409 96.1987 96.3239 94.9916C105.205 99.8897 112.223 91.7465 114.622 87.0626L103.891 79.1754C89.8549 90.0336 75.5985 105.888 70.2249 112.457M122.408 68.3533C124.503 65.6009 138.299 83.7375 139.04 88.721L123.342 93.471L122.408 68.3533ZM123.342 93.471L119.303 81.3406L108.187 66.0453L123.342 93.471ZM123.342 93.471L119.046 106.601C151.675 104.522 149.282 85.3899 144.007 76.0838C173.072 116.176 88.671 119.228 42.8376 115.743L123.342 93.471Z" stroke="black"/>
<path d="M36.0343 83.5074L29.2554 72.2099C41.2282 60.2549 45.6088 66.8302 46.4284 48.8577C55.6772 47.6524 52.2195 65.1564 49.4343 69.5798C39.5298 72.17 40.7602 82.6207 42.6135 87.5222L56.0661 85.7688C57.6971 68.6652 55.7156 47.918 54.5211 39.6823M51.2737 105.883C51.883 109.228 28.5601 105.888 24.2843 102.904L31.6832 88.9469L51.2737 105.883ZM31.6832 88.9469L43.654 94.6952L62.9606 97.8633L31.6832 88.9469ZM31.6832 88.9469L24.7887 76.8525C3.53362 100.412 19.632 112.173 30.338 115.108C-20.2186 106.756 36.5141 47.4431 71.2001 18.8307L31.6832 88.9469Z" stroke="black"/>
<path d="M167.909 72.2364L154.894 76.3241C144.872 62.8525 152.533 60.0688 134.101 55.7855C134.666 46.9522 152.096 53.596 156.126 57.0516C156.866 66.7657 167.918 67.6697 173.352 66.9074L174.173 54.0591C156.799 49.1917 134.948 46.9685 126.195 46.4653M194.042 62.455C197.622 62.544 189.597 83.5692 185.673 86.9591L172.684 77.3467L194.042 62.455ZM172.684 77.3467L180.976 67.3457L188.036 50.0201L172.684 77.3467ZM172.684 77.3467L158.821 81.3857C179.028 105.759 194.35 93.0997 199.485 83.7232C180.937 129.082 130.695 64.724 107.892 26.8757L172.684 77.3467Z" stroke="black"/>
</svg>
