<svg width="666" height="100" viewBox="0 0 666 100" fill="none" xmlns="http://www.w3.org/2000/svg">
<g filter="url(#filter0_d)">
<path d="M57.6328 24.2766C45.8086 19.4737 38.4332 20.075 36.2235 20.9761C22.8338 23.3585 15.2282 30.4674 13.0991 33.7241C19.8135 46.343 24.6571 48.2574 26.2396 47.6373C36.6722 51.469 41.5665 51.0044 41.5665 51.0044L52.8886 48.9899C63.9518 56.3659 59.5421 63.5495 55.9543 66.2193C50.1704 72.5301 43.5541 77.3977 40.9689 79.0427C27.9731 81.355 21.9375 77.689 20.5442 75.5669C12.7016 68.0241 10.8134 62.7398 10.8496 61.0406" stroke="black"/>
<path d="M95.5896 20.4811C69.9237 24.6358 61.7365 29.3378 60.8512 31.1695C64.4306 53.2817 67.384 75.6978 68.4132 84.1418C75.7124 84.1759 87.1329 82.9687 91.9308 82.3609" stroke="black"/>
<path d="M91.4372 82.4407C97.5632 80.2335 104.146 77.5132 106.672 76.429" stroke="black"/>
<path d="M64.3383 58.9695C76.438 55.4913 87.5458 53.1867 91.0855 52.1072" stroke="black"/>
<path d="M144.853 14.6502C119.087 11.1736 109.887 13.2959 108.508 14.7916C105.513 36.9904 101.83 59.2983 100.363 67.6774C107.338 69.8294 118.617 71.9903 123.385 72.8018" stroke="black"/>
<path d="M122.889 72.7349C129.392 72.4015 136.482 71.7099 139.213 71.4058" stroke="black"/>
<path d="M103.773 42.4064C116.361 42.5913 127.66 43.6112 131.36 43.606" stroke="black"/>
<path d="M172.479 18.7177C177.739 46.1609 184.437 67.9259 187.128 75.378C191.924 75.5782 200.327 54.9107 203.929 44.5519C208.724 44.7521 215.847 62.7315 218.809 71.6961C226.802 72.0298 231.149 31.8428 232.323 11.7076" stroke="black"/>
<path d="M236.295 72.9265C237.197 41.7369 243.362 19.5081 246.333 12.2924C254.625 15.0406 259.307 17.1711 260.612 17.8928C273.474 33.4428 273.703 39.958 274.951 46.0153C275.967 50.4615 275.817 61.2313 275.616 66.0605C272.867 74.3531 271.389 79.3958 270.993 80.8806" stroke="black"/>
<path d="M274.951 46.0153C259.331 46.1639 244.103 45.7284 238.441 45.492" stroke="black"/>
<path d="M283.81 72.3895C284.062 43.8109 283.2 19.4284 282.737 10.8094" stroke="black"/>
<path d="M346.848 25.4961C309.814 20.7473 294.505 20.6421 291.48 21.183" stroke="black"/>
<path d="M311.957 82.0901C315.242 51.3588 317.686 28.7653 318.498 21.31" stroke="black"/>
<path d="M345.468 75.6071C350.889 47.5463 354.455 23.4105 355.56 14.8502" stroke="black"/>
<path d="M369.274 80.1234C360.179 55.4398 361.193 33.6351 361.367 26.1168C368.815 24.6041 385.483 56.9333 393.767 72.5979C399.352 77.9941 398.154 64.0537 400.374 52.3781C398.552 33.3602 398.093 21.8888 395.666 19.1504" stroke="black"/>
<path d="M449.52 31.3421C446.124 17.9919 440.043 15.2861 437.426 15.602C424.093 14.9186 416.398 26.1043 414.217 31.7825C410.103 39.9238 407.666 50.517 406.962 54.796C410.535 63.2833 412.141 66.9116 412.497 67.6649C420.933 76.3294 434.701 73.0531 440.531 70.3319C452.402 64.1843 457.997 59.7821 459.31 58.3494C463.255 53.0315 463.002 51.1085 462.382 50.8117C431.72 43.5249 425.204 46.2759 426.21 48.0125" stroke="black"/>
<path d="M545.369 19.4517C508.624 12.8265 493.34 11.9431 490.291 12.3296" stroke="black"/>
<path d="M507.646 74.1989C512.489 43.6742 516.078 21.2343 517.268 13.8299" stroke="black"/>
<path d="M551.602 88.4523C550.245 59.9048 548.011 35.6095 547.064 27.0303" stroke="black"/>
<path d="M560.419 79.0984C564.703 54.5895 568.481 37.3315 569.835 31.7662C574.27 22.9384 575.827 23.1164 576.051 24.3089C578.406 47.6264 586.361 53.8886 586.361 53.8886C600.009 42.0999 607.517 29.741 610.588 25.5068C605.36 51.5349 598.529 74.2674 595.767 82.3802" stroke="black"/>
<path d="M661.152 32.792C636.526 24.4508 627.09 24.7741 625.45 25.9784C618.264 47.1944 610.382 68.3859 607.34 76.3297C613.774 79.7761 624.431 84.0546 628.956 85.7631" stroke="black"/>
<path d="M628.482 85.6027C634.929 86.5194 642.02 87.1967 644.759 87.4208" stroke="black"/>
<path d="M615.52 52.1775C627.841 54.767 638.736 57.9294 642.369 58.6321" stroke="black"/>
</g>
<defs>
<filter id="filter0_d" x="0.0587158" y="9.13818" width="665.253" height="90.1019" filterUnits="userSpaceOnUse" color-interpolation-filters="sRGB">
<feFlood flood-opacity="0" result="BackgroundImageFix"/>
<feColorMatrix in="SourceAlpha" type="matrix" values="0 0 0 0 0 0 0 0 0 0 0 0 0 0 0 0 0 0 127 0"/>
<feOffset dy="4"/>
<feGaussianBlur stdDeviation="2"/>
<feColorMatrix type="matrix" values="0 0 0 0 0 0 0 0 0 0 0 0 0 0 0 0 0 0 0.25 0"/>
<feBlend mode="normal" in2="BackgroundImageFix" result="effect1_dropShadow"/>
<feBlend mode="normal" in="SourceGraphic" in2="effect1_dropShadow" result="shape"/>
</filter>
</defs>
</svg>
