<svg width="646" height="83" viewBox="0 0 646 83" fill="none" xmlns="http://www.w3.org/2000/svg">
<g filter="url(#filter0_d)">
<path d="M57.5584 19.0081C46.7584 12.2081 39.3918 11.5081 37.0584 12.0081C23.4584 12.0081 14.7251 17.6747 12.0584 20.5081C16.4584 34.1081 20.8918 36.8414 22.5584 36.5081C32.1584 42.1081 37.0584 42.5081 37.0584 42.5081H48.5584C58.1584 51.7081 52.5584 58.0081 48.5584 60.0081C41.7584 65.2081 34.3918 68.8414 31.5584 70.0081C18.3584 70.0081 13.0584 65.3414 12.0584 63.0081C5.65844 54.2081 4.7251 48.6747 5.05844 47.0081" stroke="black"/>
<path d="M64.8895 71.0456C64.0959 63.1698 63.2883 51.4062 62.6396 43.6378M62.6396 43.6378C61.5179 30.2044 60.6681 18.2331 60.2809 12.2255C98.5521 9.08391 101.34 17.3836 101.34 17.3836C106.212 40.0611 90.6004 39.3359 97.5769 38.7632C83.0884 43.1633 68.2485 43.8463 62.6396 43.6378Z" stroke="black"/>
<path d="M143 9.88025C117 9.88025 108.167 13.2136 107 14.8802C107 37.2802 106.333 59.8802 106 68.3802C113.2 69.5802 124.667 70.2136 129.5 70.3802" stroke="black"/>
<path d="M129 70.3802C135.4 69.1802 142.333 67.5469 145 66.8802" stroke="black"/>
<path d="M106 42.8802C118.5 41.3802 129.833 40.8802 133.5 40.3802" stroke="black"/>
<path d="M204.706 17.9007C177.773 0.0512098 162.657 6.44445 158.466 11.8723C145.274 24.2483 147.195 24.3409 145.365 33.1529C140.611 50.1412 151.27 61.2745 157.194 64.7176C179.909 69.4351 187.482 66.4119 206.909 51.5518" stroke="black"/>
<path d="M216.473 67.3619C215.533 38.7976 213.654 14.4724 212.832 5.88025" stroke="black"/>
<path d="M225.435 67.5487C220.251 36.7797 221.974 13.7761 223.484 6.12032C232.152 7.2026 237.159 8.38142 238.579 8.83554C254.222 21.5858 255.713 27.932 258.116 33.6307C259.978 37.7944 261.926 48.3874 262.668 53.1635C261.586 61.8323 261.117 67.0663 261.018 68.5997" stroke="black"/>
<path d="M258.116 33.6307C242.824 36.8156 227.802 39.3513 222.202 40.2211" stroke="black"/>
<path d="M270.5 12.8802C270.5 36.0802 268.833 60.5469 268 69.8802C292.4 69.8802 299.5 67.8802 300 66.8802V67.3802" stroke="black"/>
<path d="M305.402 69.4637C306.548 40.907 306.448 16.5094 306.255 7.88025" stroke="black"/>
<path d="M363.558 17.0081C352.758 10.2081 345.392 9.50805 343.058 10.0081C329.458 10.0081 320.725 15.6747 318.058 18.5081C322.458 32.1081 326.892 34.8414 328.558 34.5081C338.158 40.1081 343.058 40.5081 343.058 40.5081H354.558C364.158 49.7081 358.558 56.0081 354.558 58.0081C347.758 63.2081 340.392 66.8414 337.558 68.0081C324.358 68.0081 319.058 63.3414 318.058 61.0081C311.658 52.2081 310.725 46.6747 311.058 45.0081" stroke="black"/>
<path d="M413.932 17.3209C377.227 10.4799 361.949 9.50679 358.898 9.87534" stroke="black"/>
<path d="M375.889 71.8456C380.91 41.3499 384.632 18.9314 385.865 11.5342" stroke="black"/>
<path d="M443.442 13.5529C448.411 36.2145 452.024 60.4703 453.209 69.7656C477.042 64.5394 483.549 61.0651 483.823 59.9812L483.931 60.4696" stroke="black"/>
<path d="M491.504 8C485.773 9.15844 474.397 17.6316 474.741 42.2568C474.741 44.0772 475.858 48.4131 480.328 51.1933C484.77 56.8201 497.607 65.9883 513.424 57.6475C515.86 56.3236 520.732 48.9096 520.732 29.8449C520.875 26.0386 510.846 11.9718 491.504 8Z" stroke="black"/>
<path d="M560.773 21.193C554.773 8.79302 548.273 7.35968 545.773 8.19302C532.573 10.193 527.273 22.693 526.273 28.693C523.873 37.493 523.606 48.3597 523.773 52.693C528.973 60.293 531.273 63.5263 531.773 64.193C541.773 70.993 554.606 65.0263 559.773 61.193C570.173 52.793 574.773 47.3597 575.773 45.693C578.573 39.693 577.94 37.8597 577.273 37.693C545.773 36.693 539.94 40.693 541.273 42.193" stroke="black"/>
<path d="M586.206 67.4816C585.266 38.9174 583.387 14.5921 582.565 6" stroke="black"/>
<path d="M595.464 61.2809C594.904 34.981 602.964 14.6953 605.577 7.64347C613.112 8.63897 618.342 44.6342 621.072 62.1426C624.596 69.0638 628.003 55.4932 633.905 45.1774C638.376 26.6031 641.678 15.6075 640.276 12.228" stroke="black"/>
</g>
<defs>
<filter id="filter0_d" x="0.500122" y="0.411621" width="645.085" height="82.2262" filterUnits="userSpaceOnUse" color-interpolation-filters="sRGB">
<feFlood flood-opacity="0" result="BackgroundImageFix"/>
<feColorMatrix in="SourceAlpha" type="matrix" values="0 0 0 0 0 0 0 0 0 0 0 0 0 0 0 0 0 0 127 0"/>
<feOffset dy="4"/>
<feGaussianBlur stdDeviation="2"/>
<feColorMatrix type="matrix" values="0 0 0 0 0 0 0 0 0 0 0 0 0 0 0 0 0 0 0.25 0"/>
<feBlend mode="normal" in2="BackgroundImageFix" result="effect1_dropShadow"/>
<feBlend mode="normal" in="SourceGraphic" in2="effect1_dropShadow" result="shape"/>
</filter>
</defs>
</svg>
