<svg width="220" height="85" viewBox="0 0 220 85" fill="none" xmlns="http://www.w3.org/2000/svg">
<g filter="url(#filter0_d)">
<path d="M160.654 66.7626C157.994 67.3178 151.082 68.6638 144.712 69.6064C133.1 73.1927 124.851 68.2851 122.178 65.3831L123.812 19.8256C126.44 13.5157 127.403 3.52271 129.225 2.25384C141.911 1.70809 155.71 10.6293 160.183 10.1226C161.075 13.1565 157.853 15.1101 156.98 17.3513C148.242 22.2025 142.784 18.5542 134.805 20.2197C134.258 21.6639 130.514 23.8188 130.361 28.1069C130.291 30.0561 123.728 38.5336 147.986 31.7538L157.288 36.3911L157.078 42.2386C152.65 44.3457 141.276 48.0695 131.2 46.1072C130.61 48.7544 129.389 55.1953 129.225 59.7807C129.19 60.7553 130.551 62.7558 136.274 62.961L141.771 63.1581L154.437 60.6847C155.414 61.045 158.025 62.765 160.654 66.7626Z" fill="#4BB11B"/>
<path d="M160.654 66.7626C157.994 67.3178 151.082 68.6638 144.712 69.6064C133.1 73.1927 124.851 68.2851 122.178 65.3831L123.812 19.8256C126.44 13.5157 127.403 3.52271 129.225 2.25384C141.911 1.70809 155.71 10.6293 160.183 10.1226C161.075 13.1565 157.853 15.1101 156.98 17.3513C148.242 22.2025 142.784 18.5542 134.805 20.2197C134.258 21.6639 130.514 23.8188 130.361 28.1069C130.291 30.0561 123.728 38.5336 147.986 31.7538L157.288 36.3911L157.078 42.2386C152.65 44.3457 141.276 48.0695 131.2 46.1072C130.61 48.7544 129.389 55.1953 129.225 59.7807C129.19 60.7553 130.551 62.7558 136.274 62.961L141.771 63.1581L154.437 60.6847C155.414 61.045 158.025 62.765 160.654 66.7626Z" stroke="black"/>
</g>
<g filter="url(#filter1_d)">
<path fill-rule="evenodd" clip-rule="evenodd" d="M15.4737 32.655C25.1901 10.0251 39.0309 6.92038 44.7367 8.19674C60.7835 19.7025 65.579 42.4341 63.8978 45.852C56.1323 63.2635 47.8326 70.1087 45.0688 70.3257C27.2256 71.5005 19.2359 57.8983 17.4714 50.9504C14.5214 46.5905 14.7322 34.3175 15.4737 32.655ZM26.6871 35.9957C30.0279 30.551 35.8926 26.086 42.8437 21.3025C54.7776 26.1201 54.7164 41.6249 54.7172 48.4971C52.271 51.9362 49.4774 61.477 36.0967 61.5439C31.6642 59.0195 24.6069 51.4372 26.6871 35.9957Z" fill="#4BB11B"/>
<path fill-rule="evenodd" clip-rule="evenodd" d="M15.4737 32.655C25.1901 10.0251 39.0309 6.92038 44.7367 8.19674C60.7835 19.7025 65.579 42.4341 63.8978 45.852C56.1323 63.2635 47.8326 70.1087 45.0688 70.3257C27.2256 71.5005 19.2359 57.8983 17.4714 50.9504C14.5214 46.5905 14.7322 34.3175 15.4737 32.655ZM26.6871 35.9957C30.0279 30.551 35.8926 26.086 42.8437 21.3025C54.7776 26.1201 54.7164 41.6249 54.7172 48.4971C52.271 51.9362 49.4774 61.477 36.0967 61.5439C31.6642 59.0195 24.6069 51.4372 26.6871 35.9957Z" stroke="black"/>
</g>
<g filter="url(#filter2_d)">
<path fill-rule="evenodd" clip-rule="evenodd" d="M69 53.9714C69.1591 45.8762 69.3818 22.7886 69 8.8C71.7042 5.72381 80.1669 2 94.2926 2C96.9968 2.80952 105.459 4.13713 115.767 10.7428C115.819 11.0568 116.016 11.2693 116.255 11.5279C117.498 12.8695 126.57 13.0234 115.767 37.4571C116.722 46.2 91.9065 48.8229 82.3621 41.8286L82.3632 41.84C82.5227 43.4632 82.8483 46.7777 86.6571 59.958C87.4524 63.0342 85.7026 68.0571 83.7938 70C82.203 69.6762 77.8763 69.0286 73.295 69.0286C71.8633 67.4095 69 62.1314 69 53.9714ZM101.451 35.0286C98.5875 36.4857 88.0887 38.4286 76.6355 30.6571C76.6355 30.6571 72.7223 16.96 83.7938 10.7428L104.314 14.6286C105.428 16.5714 109.086 28.2286 101.451 35.0286Z" fill="#4BB11B"/>
<path d="M82.3621 41.8286C91.9065 48.8229 116.722 46.2 115.767 37.4571C126.57 13.0234 117.498 12.8695 116.255 11.5279C116.016 11.2693 115.819 11.0568 115.767 10.7428C105.459 4.13713 96.9968 2.80952 94.2926 2C80.1669 2 71.7042 5.72381 69 8.8C69.3818 22.7886 69.1591 45.8762 69 53.9714C69 62.1314 71.8633 67.4095 73.295 69.0286C77.8763 69.0286 82.203 69.6762 83.7938 70C85.7026 68.0571 87.4524 63.0342 86.6571 59.958C82.8483 46.7777 82.5227 43.4632 82.3632 41.84M82.3621 41.8286L82.3632 41.84M82.3621 41.8286C82.3625 41.8324 82.3629 41.8362 82.3632 41.84M83.7938 10.7428L104.314 14.6286C105.428 16.5714 109.086 28.2286 101.451 35.0286C98.5875 36.4857 88.0887 38.4286 76.6355 30.6571C76.6355 30.6571 72.7223 16.96 83.7938 10.7428Z" stroke="black"/>
</g>
<g filter="url(#filter3_d)">
<path d="M171.96 69.4231C177.905 68.6149 181.524 66.7773 182.59 65.9596L176.23 34.0252C185.343 41.6673 194.397 48.8801 196.895 52.409C203.22 58.1089 204.811 59.9111 206.597 60.6774C211.353 60.0308 212.905 55.1103 212.951 51.74C210.58 34.3005 205.206 12.0887 202.815 3.1627C196.781 0.349877 194.355 2.79894 193.897 4.37507C197.099 16.0502 199.516 30.8595 201.854 40.6337C188.331 24.3065 179.053 13.962 174.575 7.00188C170.288 5.16258 164.89 10.0004 162.727 12.6493C162.863 34.4296 168.939 59.5736 171.96 69.4231Z" fill="#4BB11B"/>
<path d="M182.59 65.9596C181.524 66.7773 177.905 68.6149 171.96 69.4231C168.939 59.5736 162.863 34.4296 162.727 12.6493C164.89 10.0004 170.288 5.16258 174.575 7.00188C179.053 13.962 188.331 24.3065 201.854 40.6337C199.516 30.8595 197.099 16.0502 193.897 4.37507C194.355 2.79894 196.781 0.349877 202.815 3.1627C205.206 12.0887 210.58 34.3005 212.951 51.74C212.905 55.1103 211.353 60.0308 206.597 60.6774C204.811 59.9111 203.22 58.1089 196.895 52.409C194.397 48.8801 185.343 41.6673 176.23 34.0252M182.59 65.9596C181.243 56.0507 177.196 41.1265 176.23 34.0252M182.59 65.9596L176.23 34.0252" stroke="black"/>
</g>
<defs>
<filter id="filter0_d" x="117.482" y="1.48245" width="50.2943" height="78.7838" filterUnits="userSpaceOnUse" color-interpolation-filters="sRGB">
<feFlood flood-opacity="0" result="BackgroundImageFix"/>
<feColorMatrix in="SourceAlpha" type="matrix" values="0 0 0 0 0 0 0 0 0 0 0 0 0 0 0 0 0 0 127 0"/>
<feOffset dy="4"/>
<feGaussianBlur stdDeviation="2"/>
<feColorMatrix type="matrix" values="0 0 0 0 0 0 0 0 0 0 0 0 0 0 0 0 0 0 0.25 0"/>
<feBlend mode="normal" in2="BackgroundImageFix" result="effect1_dropShadow"/>
<feBlend mode="normal" in="SourceGraphic" in2="effect1_dropShadow" result="shape"/>
</filter>
<filter id="filter1_d" x="0.336426" y="0.695984" width="79.0556" height="84.2986" filterUnits="userSpaceOnUse" color-interpolation-filters="sRGB">
<feFlood flood-opacity="0" result="BackgroundImageFix"/>
<feColorMatrix in="SourceAlpha" type="matrix" values="0 0 0 0 0 0 0 0 0 0 0 0 0 0 0 0 0 0 127 0"/>
<feOffset dy="4"/>
<feGaussianBlur stdDeviation="2"/>
<feColorMatrix type="matrix" values="0 0 0 0 0 0 0 0 0 0 0 0 0 0 0 0 0 0 0.25 0"/>
<feBlend mode="normal" in2="BackgroundImageFix" result="effect1_dropShadow"/>
<feBlend mode="normal" in="SourceGraphic" in2="effect1_dropShadow" result="shape"/>
</filter>
<filter id="filter2_d" x="64.4949" y="1.5" width="61.005" height="77.0441" filterUnits="userSpaceOnUse" color-interpolation-filters="sRGB">
<feFlood flood-opacity="0" result="BackgroundImageFix"/>
<feColorMatrix in="SourceAlpha" type="matrix" values="0 0 0 0 0 0 0 0 0 0 0 0 0 0 0 0 0 0 127 0"/>
<feOffset dy="4"/>
<feGaussianBlur stdDeviation="2"/>
<feColorMatrix type="matrix" values="0 0 0 0 0 0 0 0 0 0 0 0 0 0 0 0 0 0 0.25 0"/>
<feBlend mode="normal" in2="BackgroundImageFix" result="effect1_dropShadow"/>
<feBlend mode="normal" in="SourceGraphic" in2="effect1_dropShadow" result="shape"/>
</filter>
<filter id="filter3_d" x="156.141" y="0.158661" width="62.9898" height="78.1948" filterUnits="userSpaceOnUse" color-interpolation-filters="sRGB">
<feFlood flood-opacity="0" result="BackgroundImageFix"/>
<feColorMatrix in="SourceAlpha" type="matrix" values="0 0 0 0 0 0 0 0 0 0 0 0 0 0 0 0 0 0 127 0"/>
<feOffset dy="4"/>
<feGaussianBlur stdDeviation="2"/>
<feColorMatrix type="matrix" values="0 0 0 0 0 0 0 0 0 0 0 0 0 0 0 0 0 0 0.25 0"/>
<feBlend mode="normal" in2="BackgroundImageFix" result="effect1_dropShadow"/>
<feBlend mode="normal" in="SourceGraphic" in2="effect1_dropShadow" result="shape"/>
</filter>
</defs>
</svg>
