<svg width="314" height="99" viewBox="0 0 314 99" fill="none" xmlns="http://www.w3.org/2000/svg">
<g filter="url(#filter0_d)">
<path d="M166.79 16.562C166.79 16.562 189.143 10.3143 201.335 14.0862C201.658 20.1057 200.598 24.9228 200.072 24.8913C188.699 16.4503 178.483 19.6267 172.474 24.1708C170.395 25.8646 173.234 35.0408 174.192 36.6822C182.445 42.7524 189.537 39.019 195.096 37.2279C200.892 35.6745 205.239 35.8013 206.689 36.0589C218.123 50.9071 212.273 62.0417 207.919 65.7529C192.914 79.2995 187.789 82.7094 187.102 82.721C165.948 82.5936 159.451 78.0543 158.847 75.8005C152.546 64.6518 158.626 48.3942 161.846 53.9801C170.041 68.1988 171.167 74.2303 185.571 74.6063C188.005 72.7459 196.389 70.3044 201.611 63.5211C201.611 63.5211 210.237 54.9614 198.582 48.5606L186.249 48.6152C171.458 48.229 163.012 47.632 159.812 34.797C161.654 31.3698 153.653 20.0831 166.79 16.562Z" fill="#8E2525"/>
<path d="M166.79 16.562C166.79 16.562 189.143 10.3143 201.335 14.0862C201.658 20.1057 200.598 24.9228 200.072 24.8913C188.699 16.4503 178.483 19.6267 172.474 24.1708C170.395 25.8646 173.234 35.0408 174.192 36.6822C182.445 42.7524 189.537 39.019 195.096 37.2279C200.892 35.6745 205.239 35.8013 206.689 36.0589C218.123 50.9071 212.273 62.0417 207.919 65.7529C192.914 79.2995 187.789 82.7094 187.102 82.721C165.948 82.5936 159.451 78.0543 158.847 75.8005C152.546 64.6518 158.626 48.3942 161.846 53.9801C170.041 68.1988 171.167 74.2303 185.571 74.6063C188.005 72.7459 196.389 70.3044 201.611 63.5211C201.611 63.5211 210.237 54.9614 198.582 48.5606L186.249 48.6152C171.458 48.229 163.012 47.632 159.812 34.797C161.654 31.3698 153.653 20.0831 166.79 16.562Z" stroke="black"/>
</g>
<g filter="url(#filter1_d)">
<path d="M252.668 79.5088C250.008 80.0639 243.096 81.41 236.727 82.3526C225.114 85.9388 216.866 81.0313 214.193 78.1292L215.826 32.5717C218.454 26.2619 219.418 16.2689 221.24 15C233.926 14.4542 247.724 23.3755 252.197 22.8687C253.089 25.9027 249.867 27.8562 248.995 30.0975C240.257 34.9487 234.798 31.3003 226.819 32.9659C226.272 34.41 222.529 36.5649 222.375 40.8531C222.305 42.8022 215.742 51.2798 240.001 44.5L249.302 49.1373L249.092 54.9847C244.665 57.0919 233.291 60.8156 223.215 58.8534C222.625 61.5006 221.404 67.9414 221.239 72.5269C221.204 73.5015 222.565 75.5019 228.289 75.7071L233.785 75.9042L246.451 73.4309C247.428 73.7912 250.039 75.5112 252.668 79.5088Z" fill="#8E2525"/>
<path d="M252.668 79.5088C250.008 80.0639 243.096 81.41 236.727 82.3526C225.114 85.9388 216.866 81.0313 214.193 78.1292L215.826 32.5717C218.454 26.2619 219.418 16.2689 221.24 15C233.926 14.4542 247.724 23.3755 252.197 22.8687C253.089 25.9027 249.867 27.8562 248.995 30.0975C240.257 34.9487 234.798 31.3003 226.819 32.9659C226.272 34.41 222.529 36.5649 222.375 40.8531C222.305 42.8022 215.742 51.2798 240.001 44.5L249.302 49.1373L249.092 54.9847C244.665 57.0919 233.291 60.8156 223.215 58.8534C222.625 61.5006 221.404 67.9414 221.239 72.5269C221.204 73.5015 222.565 75.5019 228.289 75.7071L233.785 75.9042L246.451 73.4309C247.428 73.7912 250.039 75.5112 252.668 79.5088Z" stroke="black"/>
</g>
<g filter="url(#filter2_d)">
<path fill-rule="evenodd" clip-rule="evenodd" d="M104.5 50.7826C105.039 26.1609 116.711 18.1008 122.48 17.1484C141.667 21.8107 154.623 41.0945 154.344 44.8933C153.661 63.9457 148.527 73.4001 146.045 74.6359C129.939 82.4046 117.438 72.7823 113.201 67C108.834 64.0614 104.435 52.6018 104.5 50.7826ZM116.149 49.6829C117.209 43.3835 120.975 37.0477 125.631 30.01C138.5 30.01 144.247 44.4104 146.821 50.7826C145.84 54.8874 146.821 64.7803 134.438 69.8511C129.383 69.1696 120 64.7803 116.149 49.6829Z" fill="#8E2525"/>
<path fill-rule="evenodd" clip-rule="evenodd" d="M104.5 50.7826C105.039 26.1609 116.711 18.1008 122.48 17.1484C141.667 21.8107 154.623 41.0945 154.344 44.8933C153.661 63.9457 148.527 73.4001 146.045 74.6359C129.939 82.4046 117.438 72.7823 113.201 67C108.834 64.0614 104.435 52.6018 104.5 50.7826ZM116.149 49.6829C117.209 43.3835 120.975 37.0477 125.631 30.01C138.5 30.01 144.247 44.4104 146.821 50.7826C145.84 54.8874 146.821 64.7803 134.438 69.8511C129.383 69.1696 120 64.7803 116.149 49.6829Z" stroke="black"/>
</g>
<g filter="url(#filter3_d)">
<path d="M15.5198 27.3735C18.7389 21.3183 32.5646 12.4747 62.1154 25.5419C60.707 28.2932 57.6257 30.6772 56.2611 31.5253C33.4343 20.7004 23.2837 34.0997 20.3859 40.4999C12.1315 58.6158 16.4959 60.3585 20.3859 63.4999C35.0276 73.7613 58.7556 59.6327 61.1479 52.5246C68.3432 52.7826 70.0107 56.5114 69.945 58.3435C53.2924 76.2584 46.3355 80.5118 23.1504 79.6805C16.7322 77.2824 4.3533 68.0996 6.18325 50.5539C6.50567 41.5597 4.59621 41.7914 15.5198 27.3735Z" fill="#8E2525"/>
<path d="M15.5198 27.3735C18.7389 21.3183 32.5646 12.4747 62.1154 25.5419C60.707 28.2932 57.6257 30.6772 56.2611 31.5253C33.4343 20.7004 23.2837 34.0997 20.3859 40.4999C12.1315 58.6158 16.4959 60.3585 20.3859 63.4999C35.0276 73.7613 58.7556 59.6327 61.1479 52.5246C68.3432 52.7826 70.0107 56.5114 69.945 58.3435C53.2924 76.2584 46.3355 80.5118 23.1504 79.6805C16.7322 77.2824 4.3533 68.0996 6.18325 50.5539C6.50567 41.5597 4.59621 41.7914 15.5198 27.3735Z" stroke="black"/>
</g>
<g filter="url(#filter4_d)">
<path d="M74.0887 78.5194C75.2559 69.2219 77.7982 44.8307 78.6295 21.6456C82.7129 19.3905 88.1316 20.8851 88.9285 21.9143C88.2262 41.5017 85.7759 63.3279 84.6386 71.7926C92.6334 72.0793 103.928 69.5828 109.978 68.2988C111.848 71.9681 108.21 75.7402 106.158 77.1676L106.176 76.6679C105.64 77.6494 98.4731 79.3937 74.0887 78.5194Z" fill="#8E2525"/>
<path d="M74.0887 78.5194C75.2559 69.2219 77.7982 44.8307 78.6295 21.6456C82.7129 19.3905 88.1316 20.8851 88.9285 21.9143C88.2262 41.5017 85.7759 63.3279 84.6386 71.7926C92.6334 72.0793 103.928 69.5828 109.978 68.2988C111.848 71.9681 108.21 75.7402 106.158 77.1676L106.176 76.6679C105.64 77.6494 98.4731 79.3937 74.0887 78.5194Z" stroke="black"/>
</g>
<g filter="url(#filter5_d)">
<path fill-rule="evenodd" clip-rule="evenodd" d="M259.129 20.1498C258.126 48.1319 258.688 74.413 260.602 81.4861C272.068 83.3241 297.3 84.1164 306.5 72.5821C311.5 46 292.092 7.82293 259.129 20.1498ZM269.5 71C268.931 63.6059 269.655 48.396 269.5 30.3789C283.1 28.7789 292.834 43.1667 295.5 47C301.101 60.2 294.334 65.0009 292 68.5C288.02 71.8316 285.767 72.0131 278.5 71C276.349 70.7 272.051 71.2548 269.5 71Z" fill="#8E2525"/>
<path fill-rule="evenodd" clip-rule="evenodd" d="M259.129 20.1498C258.126 48.1319 258.688 74.413 260.602 81.4861C272.068 83.3241 297.3 84.1164 306.5 72.5821C311.5 46 292.092 7.82293 259.129 20.1498ZM269.5 71C268.931 63.6059 269.655 48.396 269.5 30.3789C283.1 28.7789 292.834 43.1667 295.5 47C301.101 60.2 294.334 65.0009 292 68.5C288.02 71.8316 285.767 72.0131 278.5 71C276.349 70.7 272.051 71.2548 269.5 71Z" stroke="black"/>
</g>
<defs>
<filter id="filter0_d" x="139.35" y="6.56097" width="84.9829" height="91.5451" filterUnits="userSpaceOnUse" color-interpolation-filters="sRGB">
<feFlood flood-opacity="0" result="BackgroundImageFix"/>
<feColorMatrix in="SourceAlpha" type="matrix" values="0 0 0 0 0 0 0 0 0 0 0 0 0 0 0 0 0 0 127 0"/>
<feOffset dy="4"/>
<feGaussianBlur stdDeviation="2"/>
<feColorMatrix type="matrix" values="0 0 0 0 0 0 0 0 0 0 0 0 0 0 0 0 0 0 0.25 0"/>
<feBlend mode="normal" in2="BackgroundImageFix" result="effect1_dropShadow"/>
<feBlend mode="normal" in="SourceGraphic" in2="effect1_dropShadow" result="shape"/>
</filter>
<filter id="filter1_d" x="209.497" y="14.2286" width="50.2943" height="78.7838" filterUnits="userSpaceOnUse" color-interpolation-filters="sRGB">
<feFlood flood-opacity="0" result="BackgroundImageFix"/>
<feColorMatrix in="SourceAlpha" type="matrix" values="0 0 0 0 0 0 0 0 0 0 0 0 0 0 0 0 0 0 127 0"/>
<feOffset dy="4"/>
<feGaussianBlur stdDeviation="2"/>
<feColorMatrix type="matrix" values="0 0 0 0 0 0 0 0 0 0 0 0 0 0 0 0 0 0 0.25 0"/>
<feBlend mode="normal" in2="BackgroundImageFix" result="effect1_dropShadow"/>
<feBlend mode="normal" in="SourceGraphic" in2="effect1_dropShadow" result="shape"/>
</filter>
<filter id="filter2_d" x="99.054" y="16.0197" width="60.7613" height="70.7458" filterUnits="userSpaceOnUse" color-interpolation-filters="sRGB">
<feFlood flood-opacity="0" result="BackgroundImageFix"/>
<feColorMatrix in="SourceAlpha" type="matrix" values="0 0 0 0 0 0 0 0 0 0 0 0 0 0 0 0 0 0 127 0"/>
<feOffset dy="4"/>
<feGaussianBlur stdDeviation="2"/>
<feColorMatrix type="matrix" values="0 0 0 0 0 0 0 0 0 0 0 0 0 0 0 0 0 0 0.25 0"/>
<feBlend mode="normal" in2="BackgroundImageFix" result="effect1_dropShadow"/>
<feBlend mode="normal" in="SourceGraphic" in2="effect1_dropShadow" result="shape"/>
</filter>
<filter id="filter3_d" x="0.508545" y="17.2446" width="75.3267" height="72.6018" filterUnits="userSpaceOnUse" color-interpolation-filters="sRGB">
<feFlood flood-opacity="0" result="BackgroundImageFix"/>
<feColorMatrix in="SourceAlpha" type="matrix" values="0 0 0 0 0 0 0 0 0 0 0 0 0 0 0 0 0 0 127 0"/>
<feOffset dy="4"/>
<feGaussianBlur stdDeviation="2"/>
<feColorMatrix type="matrix" values="0 0 0 0 0 0 0 0 0 0 0 0 0 0 0 0 0 0 0.25 0"/>
<feBlend mode="normal" in2="BackgroundImageFix" result="effect1_dropShadow"/>
<feBlend mode="normal" in="SourceGraphic" in2="effect1_dropShadow" result="shape"/>
</filter>
<filter id="filter4_d" x="69.5244" y="19.6752" width="47.2473" height="68.6553" filterUnits="userSpaceOnUse" color-interpolation-filters="sRGB">
<feFlood flood-opacity="0" result="BackgroundImageFix"/>
<feColorMatrix in="SourceAlpha" type="matrix" values="0 0 0 0 0 0 0 0 0 0 0 0 0 0 0 0 0 0 127 0"/>
<feOffset dy="4"/>
<feGaussianBlur stdDeviation="2"/>
<feColorMatrix type="matrix" values="0 0 0 0 0 0 0 0 0 0 0 0 0 0 0 0 0 0 0.25 0"/>
<feBlend mode="normal" in2="BackgroundImageFix" result="effect1_dropShadow"/>
<feBlend mode="normal" in="SourceGraphic" in2="effect1_dropShadow" result="shape"/>
</filter>
<filter id="filter5_d" x="252.395" y="16.7876" width="61.0431" height="75.4874" filterUnits="userSpaceOnUse" color-interpolation-filters="sRGB">
<feFlood flood-opacity="0" result="BackgroundImageFix"/>
<feColorMatrix in="SourceAlpha" type="matrix" values="0 0 0 0 0 0 0 0 0 0 0 0 0 0 0 0 0 0 127 0"/>
<feOffset dy="4"/>
<feGaussianBlur stdDeviation="2"/>
<feColorMatrix type="matrix" values="0 0 0 0 0 0 0 0 0 0 0 0 0 0 0 0 0 0 0.25 0"/>
<feBlend mode="normal" in2="BackgroundImageFix" result="effect1_dropShadow"/>
<feBlend mode="normal" in="SourceGraphic" in2="effect1_dropShadow" result="shape"/>
</filter>
</defs>
</svg>
