<svg width="1366" height="768" viewBox="0 0 1366 768" fill="none" xmlns="http://www.w3.org/2000/svg">
<g clip-path="url(#clip0)">
<path d="M1409.87 0H-209.88V768H1409.87V0Z" fill="#BDBDBD"/>
<path d="M-19.3208 -33.2467H6488.28V2520.1H-19.3208V-33.2467Z" fill="#D1B72E"/>
<g filter="url(#filter0_d)">
<path d="M6788.4 43.2208H485.661V2460.26H6788.4V43.2208Z" fill="url(#paint0_linear)"/>
<path d="M6786.02 44.8832H488.043V2458.6H6786.02V44.8832Z" stroke="black"/>
</g>
<path d="M3810.91 -285.922H-767.266V3298.08H3810.91V-285.922Z" fill="url(#paint1_linear)"/>
<path d="M1091.9 -127.55C1572.8 -361.143 2355.51 -59.415 2590.55 321.433C2825.58 702.281 2601.14 1135.75 2089.22 1289.61C1577.3 1443.48 1002.03 1613.72 766.993 1232.87C531.958 852.021 579.993 26.3148 1091.9 -127.55Z" fill="url(#paint2_linear)"/>
<path d="M-0.264893 -33.2467H6507.33V2520.1H-0.264893V-33.2467Z" fill="#96727C" fill-opacity="0.53"/>
<path d="M61.1008 2605.29L1171.09 2601.12C1328.96 2600.53 1456.24 2510.74 1455.39 2400.57L1440.54 472.291C1439.68 362.122 1311.03 273.293 1153.17 273.885L43.1743 278.05C-114.688 278.642 -241.973 368.431 -241.124 478.6L-226.271 2406.88C-225.422 2517.05 -96.7615 2605.88 61.1008 2605.29Z" fill="url(#paint3_linear)"/>
<path d="M1420.51 1902.87C2096.56 1897.99 2638.97 1513.22 2632.02 1043.44C2625.07 573.662 2071.39 196.782 1395.34 201.654C719.284 206.525 176.872 591.304 183.823 1061.08C190.774 1530.86 744.456 1907.74 1420.51 1902.87Z" fill="#A5B158" fill-opacity="0.28"/>
<g opacity="0.2" filter="url(#filter1_dddddddd)">
<path opacity="0.2" d="M-1105.51 -1479.48L-451.995 -323.941H1662.82L-48.1011 390.22L605.415 1545.76L-1105.51 831.598L-2816.43 1545.76L-2162.92 390.22L-3873.84 -323.941H-1759.02L-1105.51 -1479.48Z" fill="#D1B72E"/>
</g>
<path d="M1781.6 -47.7164L-624.69 -33.3888C-650.999 -33.2322 -672.146 -18.2207 -671.921 0.140331L-662.162 798.383C-661.938 816.744 -640.427 831.501 -614.117 831.344L1792.18 817.017C1818.49 816.86 1839.63 801.849 1839.4 783.488L1829.65 -14.7545C1829.42 -33.1155 1807.91 -47.873 1781.6 -47.7164Z" fill="url(#paint4_linear)" fill-opacity="0.5"/>
</g>
<defs>
<filter id="filter0_d" x="481.661" y="43.2208" width="6310.74" height="2425.04" filterUnits="userSpaceOnUse" color-interpolation-filters="sRGB">
<feFlood flood-opacity="0" result="BackgroundImageFix"/>
<feColorMatrix in="SourceAlpha" type="matrix" values="0 0 0 0 0 0 0 0 0 0 0 0 0 0 0 0 0 0 127 0"/>
<feOffset dy="4"/>
<feGaussianBlur stdDeviation="2"/>
<feColorMatrix type="matrix" values="0 0 0 0 0 0 0 0 0 0 0 0 0 0 0 0 0 0 0.25 0"/>
<feBlend mode="normal" in2="BackgroundImageFix" result="effect1_dropShadow"/>
<feBlend mode="normal" in="SourceGraphic" in2="effect1_dropShadow" result="shape"/>
</filter>
<filter id="filter1_dddddddd" x="-3877.84" y="-1479.48" width="5544.66" height="3033.24" filterUnits="userSpaceOnUse" color-interpolation-filters="sRGB">
<feFlood flood-opacity="0" result="BackgroundImageFix"/>
<feColorMatrix in="SourceAlpha" type="matrix" values="0 0 0 0 0 0 0 0 0 0 0 0 0 0 0 0 0 0 127 0"/>
<feOffset dy="4"/>
<feGaussianBlur stdDeviation="2"/>
<feColorMatrix type="matrix" values="0 0 0 0 0 0 0 0 0 0 0 0 0 0 0 0 0 0 0.25 0"/>
<feBlend mode="normal" in2="BackgroundImageFix" result="effect1_dropShadow"/>
<feColorMatrix in="SourceAlpha" type="matrix" values="0 0 0 0 0 0 0 0 0 0 0 0 0 0 0 0 0 0 127 0"/>
<feOffset dy="4"/>
<feGaussianBlur stdDeviation="2"/>
<feColorMatrix type="matrix" values="0 0 0 0 0 0 0 0 0 0 0 0 0 0 0 0 0 0 0.25 0"/>
<feBlend mode="normal" in2="effect1_dropShadow" result="effect2_dropShadow"/>
<feColorMatrix in="SourceAlpha" type="matrix" values="0 0 0 0 0 0 0 0 0 0 0 0 0 0 0 0 0 0 127 0"/>
<feOffset dy="4"/>
<feGaussianBlur stdDeviation="2"/>
<feColorMatrix type="matrix" values="0 0 0 0 0 0 0 0 0 0 0 0 0 0 0 0 0 0 0.25 0"/>
<feBlend mode="normal" in2="effect2_dropShadow" result="effect3_dropShadow"/>
<feColorMatrix in="SourceAlpha" type="matrix" values="0 0 0 0 0 0 0 0 0 0 0 0 0 0 0 0 0 0 127 0"/>
<feOffset dy="4"/>
<feGaussianBlur stdDeviation="2"/>
<feColorMatrix type="matrix" values="0 0 0 0 0 0 0 0 0 0 0 0 0 0 0 0 0 0 0.25 0"/>
<feBlend mode="normal" in2="effect3_dropShadow" result="effect4_dropShadow"/>
<feColorMatrix in="SourceAlpha" type="matrix" values="0 0 0 0 0 0 0 0 0 0 0 0 0 0 0 0 0 0 127 0"/>
<feOffset dy="4"/>
<feGaussianBlur stdDeviation="2"/>
<feColorMatrix type="matrix" values="0 0 0 0 0 0 0 0 0 0 0 0 0 0 0 0 0 0 0.25 0"/>
<feBlend mode="normal" in2="effect4_dropShadow" result="effect5_dropShadow"/>
<feColorMatrix in="SourceAlpha" type="matrix" values="0 0 0 0 0 0 0 0 0 0 0 0 0 0 0 0 0 0 127 0"/>
<feOffset dy="4"/>
<feGaussianBlur stdDeviation="2"/>
<feColorMatrix type="matrix" values="0 0 0 0 0 0 0 0 0 0 0 0 0 0 0 0 0 0 0.25 0"/>
<feBlend mode="normal" in2="effect5_dropShadow" result="effect6_dropShadow"/>
<feColorMatrix in="SourceAlpha" type="matrix" values="0 0 0 0 0 0 0 0 0 0 0 0 0 0 0 0 0 0 127 0"/>
<feOffset dy="4"/>
<feGaussianBlur stdDeviation="2"/>
<feColorMatrix type="matrix" values="0 0 0 0 0 0 0 0 0 0 0 0 0 0 0 0 0 0 0.25 0"/>
<feBlend mode="normal" in2="effect6_dropShadow" result="effect7_dropShadow"/>
<feColorMatrix in="SourceAlpha" type="matrix" values="0 0 0 0 0 0 0 0 0 0 0 0 0 0 0 0 0 0 127 0"/>
<feOffset dy="4"/>
<feGaussianBlur stdDeviation="2"/>
<feColorMatrix type="matrix" values="0 0 0 0 0 0 0 0 0 0 0 0 0 0 0 0 0 0 0.25 0"/>
<feBlend mode="normal" in2="effect7_dropShadow" result="effect8_dropShadow"/>
<feBlend mode="normal" in="SourceGraphic" in2="effect8_dropShadow" result="shape"/>
</filter>
<linearGradient id="paint0_linear" x1="3637.03" y1="43.2209" x2="5636.39" y2="3191.79" gradientUnits="userSpaceOnUse">
<stop offset="0.385417" stop-color="#9A4076"/>
<stop offset="1" stop-color="#9A4076" stop-opacity="0"/>
</linearGradient>
<linearGradient id="paint1_linear" x1="435.639" y1="-118.026" x2="-1318.75" y2="2793.92" gradientUnits="userSpaceOnUse">
<stop offset="0.0109915" stop-color="#939615"/>
<stop offset="0.268679" stop-color="#5E3838" stop-opacity="0.826948"/>
<stop offset="1" stop-color="#863636" stop-opacity="0"/>
</linearGradient>
<linearGradient id="paint2_linear" x1="297.974" y1="227.299" x2="535.163" y2="617.603" gradientUnits="userSpaceOnUse">
<stop offset="0.104167" stop-color="#CC2A2A"/>
<stop offset="0.957667" stop-color="#CC2A2A" stop-opacity="0"/>
<stop offset="1" stop-color="#CC2A2A" stop-opacity="0.773146"/>
</linearGradient>
<linearGradient id="paint3_linear" x1="616.097" y1="2603.21" x2="228.366" y2="523.655" gradientUnits="userSpaceOnUse">
<stop offset="0.776042" stop-color="#281123"/>
<stop offset="1" stop-color="#281123" stop-opacity="0"/>
</linearGradient>
<linearGradient id="paint4_linear" x1="585.364" y1="-48.0002" x2="31.2033" y2="1487.93" gradientUnits="userSpaceOnUse">
<stop offset="0.178325" stop-color="#B95B5B"/>
<stop offset="0.799241" stop-color="#BA9999" stop-opacity="0"/>
</linearGradient>
<clipPath id="clip0">
<rect width="1366" height="768" fill="white"/>
</clipPath>
</defs>
</svg>